<svg width="79" height="37" viewBox="0 0 79 37" fill="none" xmlns="http://www.w3.org/2000/svg">
<path d="M13.2635 7.49739H7.66908V5.78043C7.66908 4.97918 7.59754 4.46886 7.45446 4.24947C7.31138 4.03008 7.07292 3.92039 6.73906 3.92039C6.37659 3.92039 6.10236 4.06824 5.91635 4.36394C5.73035 4.65964 5.63735 5.10795 5.63735 5.70889C5.63735 6.48152 5.74227 7.06338 5.95212 7.45446C6.15244 7.84555 6.71998 8.31771 7.65477 8.87095C10.3352 10.4639 12.0235 11.7707 12.7198 12.7913C13.4161 13.812 13.7643 15.4574 13.7643 17.7276C13.7643 19.3778 13.5711 20.594 13.1848 21.3761C12.7985 22.1583 12.0521 22.8141 10.9456 23.3435C9.83912 23.8729 8.55142 24.1376 7.08246 24.1376C5.47041 24.1376 4.09448 23.8323 2.9546 23.2219C1.81472 22.6114 1.06833 21.834 0.7154 20.8897C0.362467 19.9453 0.186004 18.6052 0.186004 16.8691V15.3525H5.78043V18.1711C5.78043 19.0392 5.85912 19.5972 6.01651 19.8452C6.1739 20.0932 6.4529 20.2172 6.85353 20.2172C7.25415 20.2172 7.55223 20.0598 7.74778 19.745C7.94332 19.4303 8.04109 18.9629 8.04109 18.3428C8.04109 16.9788 7.85509 16.087 7.48308 15.6672C7.10153 15.2475 6.16198 14.5465 4.6644 13.564C3.16683 12.5719 2.17482 11.8518 1.68834 11.4035C1.20187 10.9551 0.798864 10.3351 0.479318 9.54343C0.159771 8.75172 0 7.74063 0 6.51014C0 4.73594 0.226541 3.43869 0.67963 2.61836C1.13272 1.79803 1.8648 1.15656 2.87591 0.693938C3.88701 0.23131 5.10795 0 6.53875 0C8.1031 0 9.43611 0.252772 10.5378 0.758323C11.6396 1.26388 12.3693 1.90057 12.727 2.66844C13.0847 3.43631 13.2635 4.74071 13.2635 6.58168V7.49739Z" fill="white"/>
<path d="M68.4332 0.495911H78.4774V5.1317H74.4569V9.52425H78.2199V13.9311H74.4569V19.0248H78.8781V23.6605H68.4332V0.495911Z" fill="white"/>
<path d="M15.8235 2.79504H23.8588V6.50368H20.6424V10.0177H23.6528V13.5432H20.6424V17.6181H24.1793V21.3268H15.8235V2.79504ZM34.0662 2.79504L36.8248 21.3268H31.8914L31.651 17.9959H29.9226L29.6364 21.3268H24.6458L27.0953 2.79504H34.0662ZM31.5136 14.7107C31.2695 12.6122 31.0253 10.0215 30.7811 6.93864C30.2927 10.4794 29.9875 13.0701 29.8654 14.7107H31.5136ZM46.9606 2.79504V17.6181H49.8909V21.3268H42.1417V2.79504H46.9606ZM56.0577 2.79504V21.3268H51.2388V2.79504H56.0577ZM58.1725 2.79504H66.3337V6.50368H62.9914V10.0177H65.9675V13.5432H62.9914V21.3268H58.1725V2.79504Z" fill="white"/>
<path d="M13.8193 35.8709V26.7385H18.5225C19.3947 26.7385 20.0612 26.8132 20.5222 26.9627C20.9832 27.1122 21.3549 27.3905 21.6373 27.7975C21.9197 28.2003 22.0609 28.6925 22.0609 29.2739C22.0609 29.7805 21.9529 30.2187 21.7369 30.5883C21.521 30.9538 21.224 31.2507 20.8461 31.4791C20.6053 31.6245 20.2751 31.7449 19.8556 31.8404C20.192 31.9525 20.4371 32.0647 20.5907 32.1768C20.6945 32.2516 20.8441 32.4114 21.0392 32.6565C21.2386 32.9015 21.3715 33.0905 21.4379 33.2234L22.8022 35.8709H19.6127L18.1052 33.0801C17.9141 32.7188 17.7438 32.4841 17.5943 32.3761C17.3908 32.2349 17.1604 32.1643 16.9029 32.1643H16.6537V35.8709H13.8193ZM16.6537 30.4388H17.8435C17.9723 30.4388 18.2214 30.3973 18.5911 30.3142C18.7779 30.2768 18.9295 30.1813 19.0458 30.0276C19.1662 29.874 19.2265 29.6975 19.2265 29.4981C19.2265 29.2033 19.133 28.9769 18.9461 28.8191C18.7593 28.6613 18.4083 28.5824 17.8934 28.5824H16.6537V30.4388Z" fill="white"/>
<path d="M23.7055 26.7385H31.268V28.6883H26.5336V30.1398H30.9254V32.0024H26.5336V33.8027H31.4051V35.8709H23.7055V26.7385Z" fill="white"/>
<path d="M32.4392 32.8496L35.1241 32.6814C35.1822 33.1175 35.3006 33.4497 35.4792 33.6781C35.7699 34.0477 36.1852 34.2325 36.7251 34.2325C37.1279 34.2325 37.4373 34.1391 37.6533 33.9522C37.8734 33.7612 37.9834 33.5411 37.9834 33.2919C37.9834 33.0552 37.8796 32.8434 37.6719 32.6565C37.4643 32.4696 36.9826 32.2931 36.2267 32.127C34.9891 31.8487 34.1066 31.4791 33.5792 31.0181C33.0476 30.5571 32.7818 29.9695 32.7818 29.2552C32.7818 28.7859 32.9168 28.3436 33.1867 27.9283C33.4608 27.5088 33.8699 27.1808 34.4139 26.944C34.9621 26.7032 35.7117 26.5827 36.6628 26.5827C37.8298 26.5827 38.7185 26.8008 39.329 27.2368C39.9436 27.6687 40.3091 28.3581 40.4254 29.305L37.7654 29.4608C37.6948 29.0496 37.5453 28.7506 37.3169 28.5637C37.0926 28.3768 36.7811 28.2834 36.3824 28.2834C36.0544 28.2834 35.8073 28.354 35.6411 28.4952C35.475 28.6322 35.392 28.8004 35.392 28.9998C35.392 29.1451 35.4605 29.2759 35.5975 29.3922C35.7304 29.5127 36.0461 29.6248 36.5444 29.7286C37.7778 29.9944 38.6604 30.2644 39.1919 30.5385C39.7277 30.8084 40.116 31.1448 40.3569 31.5476C40.6019 31.9505 40.7244 32.4011 40.7244 32.8994C40.7244 33.485 40.5624 34.0249 40.2385 34.5191C39.9146 35.0133 39.4619 35.3891 38.8805 35.6466C38.2991 35.9 37.566 36.0266 36.6815 36.0266C35.1282 36.0266 34.0526 35.7276 33.4546 35.1296C32.8566 34.5315 32.5181 33.7716 32.4392 32.8496Z" fill="white"/>
<path d="M48.2309 32.1394L50.704 32.887C50.5379 33.5805 50.2763 34.1599 49.9191 34.625C49.5619 35.0901 49.1176 35.4411 48.586 35.6778C48.0586 35.9145 47.3858 36.0329 46.5676 36.0329C45.5751 36.0329 44.7632 35.8896 44.1319 35.603C43.5048 35.3123 42.9629 34.8036 42.506 34.0768C42.0492 33.35 41.8208 32.4198 41.8208 31.286C41.8208 29.7743 42.2215 28.6135 43.0231 27.8037C43.8287 26.9897 44.9667 26.5827 46.4368 26.5827C47.5872 26.5827 48.4905 26.8153 49.1466 27.2804C49.807 27.7456 50.297 28.4599 50.6168 29.4234L48.125 29.9778C48.0378 29.6995 47.9464 29.4961 47.8509 29.3673C47.6931 29.1514 47.5 28.9852 47.2716 28.869C47.0432 28.7527 46.7878 28.6945 46.5053 28.6945C45.8658 28.6945 45.3757 28.952 45.0352 29.467C44.7777 29.8491 44.649 30.4492 44.649 31.2673C44.649 32.2806 44.8026 32.9763 45.1099 33.3542C45.4173 33.7279 45.8492 33.9148 46.4057 33.9148C46.9456 33.9148 47.3526 33.7632 47.6267 33.4601C47.9049 33.1569 48.1063 32.7167 48.2309 32.1394Z" fill="white"/>
<path d="M58.0237 26.7385H60.8394V32.183C60.8394 32.7229 60.7542 33.2337 60.584 33.7155C60.4179 34.1931 60.1541 34.6125 59.7928 34.9738C59.4357 35.331 59.0598 35.5823 58.6653 35.7276C58.1171 35.9311 57.4589 36.0329 56.6905 36.0329C56.2462 36.0329 55.7603 36.0017 55.2328 35.9394C54.7096 35.8771 54.2714 35.7546 53.9184 35.5719C53.5654 35.385 53.2415 35.1213 52.9466 34.7807C52.6559 34.4402 52.4566 34.0893 52.3486 33.7279C52.1742 33.1465 52.087 32.6316 52.087 32.183V26.7385H54.9027V32.3139C54.9027 32.8122 55.0397 33.2026 55.3138 33.485C55.5921 33.7632 55.9762 33.9024 56.4663 33.9024C56.9522 33.9024 57.3322 33.7653 57.6063 33.4912C57.8845 33.213 58.0237 32.8205 58.0237 32.3139V26.7385Z" fill="white"/>
<path d="M62.702 26.7385H70.2646V28.6883H65.5302V30.1398H69.922V32.0024H65.5302V33.8027H70.4016V35.8709H62.702V26.7385Z" fill="white"/>
</svg>
