<svg id="Repair_Service" height="512" viewBox="0 0 64 64" width="512" xmlns="http://www.w3.org/2000/svg" data-name="Repair Service"><path fill="#0AE88D" d="m34 41h3v18h-3z"/><rect fill="#0AE88D" height="5" rx="1" width="16" x="8" y="47"/><path fill="#0AE88D" d="m53.86 5a8.945 8.945 0 0 0 -7.08 3.44l-6.72 8.56h19.94v-12z"/><rect fill="#0AE88D" height="5" rx="1" width="16" x="4" y="54"/><path fill="#0AE88D" d="m51 31a8.966 8.966 0 0 0 -4.86 1.42l6.55 1.76a1.038 1.038 0 0 1 .66.57l2.57 5.86a1 1 0 0 1 -.33 1.2l-5.16 3.81a1.026 1.026 0 0 1 -.85.16l-6.65-1.79a9.058 9.058 0 0 0 3.57 3.79 1 1 0 0 1 .5.87v11.35h8v-11.35a1 1 0 0 1 .5-.87 8.991 8.991 0 0 0 -4.5-16.78z"/><path fill="#0AE88D" d="m39 39h14.03l-1.32-3.01-7.99-2.14a1.017 1.017 0 0 1 -.71-.71 1 1 0 0 1 .27-.97 10.975 10.975 0 0 1 16.72 1.53v-14.7h-21z"/><path fill="#0AE88D" d="m36.2 19.38-24.7-14.25a1.012 1.012 0 0 0 -1.01.01l-5 3 1.02 1.72 4.5-2.7 22.2 12.82-23.58 4.71a7.023 7.023 0 0 0 -5.63 6.87v7.44h11.05a10 10 0 0 1 19.9 0h2.05v-19.16zm-18.22 7.82-.43 2.13a4.981 4.981 0 0 1 -4.35 3.99l-6.09.67a.41.41 0 0 1 -.11.01 1.05 1.05 0 0 1 -.67-.25 1.022 1.022 0 0 1 -.33-.75v-2.36a3 3 0 0 1 2.41-2.94l8.39-1.68a1 1 0 0 1 1.18 1.18z"/><path fill="#0AE88D" d="m25 32a8.013 8.013 0 0 0 -7.938 7h4.08a3.981 3.981 0 0 1 7.716 0h4.08a8.013 8.013 0 0 0 -7.938-7z"/><path fill="#0AE88D" d="m8 30.64v1.243l4.983-.554a2.989 2.989 0 0 0 2.61-2.393l.132-.661-6.925 1.384a1 1 0 0 0 -.8.981z"/><circle fill="#0AE88D" cx="25" cy="40" r="2"/></svg>