<svg width="25" height="17" viewBox="0 0 25 17" fill="none" xmlns="http://www.w3.org/2000/svg">
<path d="M23.9748 7.81002L16.5498 0.385021C16.3565 0.191647 16.0432 0.191647 15.8499 0.385021C15.6565 0.578396 15.6565 0.891638 15.8499 1.08497L22.4299 7.665H0.854879C0.581267 7.665 0.359863 7.88641 0.359863 8.16002C0.359863 8.43363 0.581267 8.65503 0.854879 8.65503H22.4299L15.8499 15.235C15.6565 15.4284 15.6565 15.7416 15.8499 15.935C15.9466 16.0316 16.0733 16.08 16.1999 16.08C16.3265 16.08 16.4532 16.0316 16.5499 15.935L23.9749 8.50997C24.1682 8.31664 24.1682 8.0034 23.9748 7.81002Z" fill="white" fill-opacity="0.51"/>
</svg>
