<svg id="Repair_Service" height="512" viewBox="0 0 64 64" width="512" xmlns="http://www.w3.org/2000/svg" data-name="Repair Service"><path d="m9 3v30h6l2-6h14l2 6h6v-30z" fill="#fff"/><path d="m35.32 28.52 8.52 2.29 5.16-3.8-2.57-5.86-8.45-2.27a10 10 0 1 1 12.02 15.77v26.35h-10v-26.35a10 10 0 0 1 -4.68-6.13z" fill="#fff"/><path d="m9 8h30v6h-30z" fill="#fff"/><circle cx="24" cy="21" fill="#fff" r="3"/><path d="m9 47h16v14h-16z" fill="#fff"/><circle cx="17" cy="54" fill="#fff" r="4"/><path d="m21 47h-8l7-20h8z" fill="#fff"/><path fill="#0AE88D" d="m45 15a10.973 10.973 0 0 0 -5 1.2v-13.2a1 1 0 0 0 -1-1h-30a1 1 0 0 0 -1 1v30a1 1 0 0 0 1 1h6a1.014 1.014 0 0 0 .95-.68l1.77-5.32h.87l-6.3 18h-3.29a1 1 0 0 0 -1 1v14a1 1 0 0 0 1 1h16a1 1 0 0 0 1-1v-14a1 1 0 0 0 -1-1h-2.59l6.3-18h1.57l1.77 5.32a1.014 1.014 0 0 0 .95.68h4.47a10.573 10.573 0 0 0 1.53 1.21v25.79a1 1 0 0 0 1 1h10a1 1 0 0 0 1-1v-25.79a10.994 10.994 0 0 0 -6-20.21zm-5 5.46 5.71 1.53 2.05 4.69-4.13 3.04-3.63-.98zm-30-16.46h28v3h-28zm0 5h28v4h-28zm14 39v12h-14v-12zm-3.71-2h-5.88l6.3-18h5.88zm13.43-14-1.77-5.32a1.014 1.014 0 0 0 -.95-.68h-14a1.014 1.014 0 0 0 -.95.68l-1.77 5.32h-4.28v-17h28v2.52c-.25.21-.49.42-.72.65a1 1 0 0 0 -.27.97 1.017 1.017 0 0 0 .71.71l.28.07v8.28l-2.29-.61a1 1 0 0 0 -1.39.92v.02a.783.783 0 0 0 .04.26 11.052 11.052 0 0 0 1.44 3.21zm15.78 1.78a1 1 0 0 0 -.5.87v25.35h-8v-25.35a1 1 0 0 0 -.5-.87 9.058 9.058 0 0 1 -3.57-3.79l6.65 1.79a1.019 1.019 0 0 0 .85-.16l5.16-3.81a1 1 0 0 0 .33-1.2l-2.57-5.86a1.038 1.038 0 0 0 -.66-.57l-6.55-1.76a9 9 0 1 1 9.36 15.36z"/><path fill="#0AE88D" d="m24 17a4 4 0 1 0 4 4 4 4 0 0 0 -4-4zm0 6a2 2 0 1 1 2-2 2 2 0 0 1 -2 2z"/><path fill="#0AE88D" d="m17 49a5 5 0 1 0 5 5 5.006 5.006 0 0 0 -5-5zm0 8a3 3 0 1 1 3-3 3 3 0 0 1 -3 3z"/></svg>