<svg width="24" height="17" viewBox="0 0 24 17" fill="none" xmlns="http://www.w3.org/2000/svg">
<path d="M0.224866 9.18998L7.64986 16.615C7.84324 16.8084 8.15648 16.8084 8.34981 16.615C8.54319 16.4216 8.54319 16.1084 8.34981 15.915L1.76978 9.335L23.3448 9.335C23.6184 9.335 23.8398 9.11359 23.8398 8.83998C23.8398 8.56637 23.6184 8.34497 23.3448 8.34497L1.76978 8.34497L8.34981 1.76498C8.54319 1.5716 8.54319 1.25836 8.34981 1.06503C8.25315 0.968369 8.12646 0.920013 7.99981 0.920013C7.87317 0.920013 7.74653 0.968369 7.64982 1.06503L0.224818 8.49003C0.031491 8.68336 0.031491 8.9966 0.224866 9.18998Z" fill="white" fill-opacity="0.51"/>
</svg>
