<svg width="30" height="30" viewBox="0 0 30 30" fill="none" xmlns="http://www.w3.org/2000/svg">
<g clip-path="url(#clip0)">
<path d="M15 1.31134e-06C23.2844 5.87097e-07 30 6.71584 30 15C30 23.2846 23.2844 30 15 30C6.71561 30 2.03561e-06 23.2846 1.31134e-06 15C5.87117e-07 6.71584 6.71561 2.03559e-06 15 1.31134e-06ZM15 22.5C16.0356 22.5 16.875 21.6609 16.875 20.625C16.875 19.5895 16.0356 18.75 15 18.75C13.9644 18.75 13.125 19.5895 13.125 20.625C13.125 21.6609 13.9644 22.5 15 22.5ZM13.125 15.9375L16.875 15.9375L17.8125 8.4375C17.8125 7.91977 17.3927 7.5 16.875 7.5L13.125 7.5C12.6073 7.5 12.1875 7.91977 12.1875 8.4375L13.125 15.9375Z" fill="white"/>
</g>
<defs>
<clipPath id="clip0">
<rect width="30" height="30" fill="white" transform="matrix(-1 8.74228e-08 8.74228e-08 1 30 0)"/>
</clipPath>
</defs>
</svg>
