<svg width="365" height="169" viewBox="0 0 365 169" fill="none" xmlns="http://www.w3.org/2000/svg">
<g clip-path="url(#clip0)">
<path d="M359.015 103.559L358.588 103.277C357.97 102.916 357.432 102.434 357.006 101.859L356.677 101.393C355.389 100.008 354.664 98.1953 354.641 96.3076C354.692 95.1655 354.889 94.0345 355.227 92.942C355.406 92.1715 355.606 91.4024 355.722 90.6276C355.807 89.3644 356.168 88.0985 356.441 86.869C356.715 85.6396 356.9 84.7849 357.083 83.634C357.904 79.7249 357.596 75.6632 356.192 71.921C355.985 71.4292 355.708 70.9691 355.371 70.5547C354.908 69.4556 354.028 68.5832 352.923 68.1275C353.713 67.8354 354.455 67.4291 355.126 66.9218C356.404 65.9078 356.186 64.4127 355.98 63.0664C355.712 61.3565 355.403 59.6438 355.089 57.9943C354.983 57.3527 354.876 56.7322 354.748 56.1103C354.598 55.065 354.612 54.0027 354.79 52.9619C354.853 52.0144 356.241 51.5788 357.392 51.1908C357.786 51.055 358.172 50.8974 358.549 50.7185C358.549 50.7185 359.119 50.4395 359.169 50.0199C359.175 49.9299 359.161 49.8396 359.126 49.7563C359.091 49.6731 359.036 49.5993 358.967 49.5411C358.579 49.2349 358.116 49.036 357.626 48.9647C356.92 48.8885 356.206 48.8975 355.502 48.9913L354.931 48.953C352.897 49.1807 350.891 49.613 348.944 50.2432L348.165 50.4659C343.92 51.7902 340.027 54.0436 336.769 57.0612C335.642 58.043 334.515 59.0248 333.422 60.1358C330.402 63.2747 326.884 65.8968 323.009 67.8968C322.023 68.3188 321.006 68.6676 319.968 68.9405L319.355 68.8994C304.323 65.3414 289.51 60.9226 274.988 55.6651C270.848 54.0972 266.184 52.1134 260.755 49.8246C255.326 47.5357 249.141 44.8154 242.168 42.1269C242.26 41.981 242.369 41.8464 242.492 41.7256C244.261 40.0466 244.937 38.8231 244.66 37.895C244.382 36.967 242.309 36.2357 238.571 36.5771C234.695 36.9085 230.793 36.8099 226.938 36.2829C207.613 29.1811 187.917 23.1292 167.935 18.1539C158.96 15.8809 149.121 13.846 138.486 11.9481C112.346 7.49663 85.8784 5.23957 59.3616 5.20069C26.319 5.4157 14.8057 10.6072 10.9505 14.9167C10.4503 15.5578 10.154 16.3334 10.0996 17.1438C10.0452 17.9541 10.2353 18.7623 10.6453 19.4645C10.2066 19.6691 9.82034 19.9705 9.5157 20.3457C9.21106 20.721 8.996 21.1603 8.88678 21.6306C8.64986 22.9471 9.48356 24.4412 11.3513 26.0258C13.9148 28.3127 20.3832 31.8768 30.1829 37.3564C38.6486 42.1543 49.9232 48.4307 63.1668 56.362C64.0853 56.9101 64.9797 57.4988 65.9207 58.0273L67.9575 59.306C76.0386 64.1162 84.4411 68.3686 93.1057 72.0333C92.6934 72.4389 92.3096 72.8725 91.9573 73.3309C91.5168 73.9028 91.0119 74.4224 90.4525 74.8796C89.9293 75.385 89.5133 75.9899 89.2293 76.6586C88.9986 77.2734 88.6191 77.8218 88.1246 78.2553C80.385 83.6731 73.707 90.4574 68.4206 98.2726L67.8119 99.1201L65.756 101.922C64.337 103.772 62.8941 105.664 61.5934 107.649C58.038 112.973 55.6068 118.962 54.4477 125.252C54.0951 127.343 54.562 131.774 56.6946 133.207L56.8002 133.214L57.2651 133.245C57.7135 133.329 58.1757 133.301 58.6107 133.164C59.0456 133.027 59.44 132.786 59.7588 132.461C60.6292 131.397 61.1985 130.121 61.4077 128.764C61.5556 128.057 61.7655 127.363 62.035 126.692C62.6201 125.554 63.4079 124.532 64.36 123.675C65.2676 122.845 66.0473 121.885 66.6737 120.827L66.9443 120.274C67.4319 119.247 68.0382 118.28 68.7509 117.393C69.3258 116.733 70.0035 116.123 70.6461 115.405L71.3703 114.734C72.012 114.079 72.5614 113.341 73.0035 112.539C73.22 112.117 73.5442 111.759 73.9433 111.502C74.5043 111.22 75.1137 111.045 75.7396 110.988C76.2054 110.939 76.6659 110.85 77.116 110.721C77.5366 110.582 77.9214 110.353 78.2426 110.049C78.5639 109.745 78.8138 109.375 78.9745 108.963L78.9971 108.626C79.063 108.157 79.3128 107.733 79.6918 107.446C79.8139 107.287 79.9518 107.14 80.1033 107.009C80.9117 106.411 81.8682 106.044 82.8703 105.947L82.9759 105.954C83.8364 105.745 84.6451 105.364 85.3523 104.833C86.0596 104.303 86.6504 103.633 87.0887 102.867C87.5312 102.136 88.0612 101.461 88.6669 100.858C88.9602 100.419 89.3456 100.048 89.7965 99.7716C90.2475 99.4952 90.7533 99.3195 91.279 99.2566C92.0299 99.1378 92.7977 99.0835 93.5444 99.0279C94.7554 98.9338 95.9554 98.7312 97.1298 98.4225C100.908 97.4705 102.57 93.9021 104.013 90.7419L104.456 89.8411C105.4 87.7416 107.007 86.0076 109.032 84.9032C110.414 84.1594 111.593 83.0916 112.467 81.7921C112.838 81.2101 113.01 80.5246 112.959 79.8371C116.13 80.9804 119.346 82.0845 122.628 83.1507C122.944 84.7792 123.217 86.4048 123.491 88.0094C123.685 89.2279 123.879 90.4465 124.096 91.6454C125.149 97.4686 126.782 104.134 131.042 109.285C132.055 110.428 132.58 111.92 132.504 113.443C132.466 113.96 132.532 114.48 132.7 114.971C132.868 115.461 133.133 115.914 133.479 116.3C133.924 116.619 134.395 116.898 134.888 117.135C135.533 117.434 136.123 117.838 136.633 118.331C137.828 119.629 138.92 121.017 139.899 122.484C141.685 125.193 143.637 127.789 145.746 130.257C147.647 132.325 149.905 134.038 152.411 135.315C153.453 135.914 153.415 136.799 153.383 137.918L153.361 138.234C153.296 139.202 154.433 139.659 155.092 139.957L155.283 139.97L156.584 140.502C157.481 140.805 158.338 141.218 159.134 141.73C160.11 142.415 161.024 143.185 161.866 144.028C162.324 144.482 162.782 144.936 163.264 145.349C165.644 147.606 168.265 149.597 171.08 151.287C172.091 152.319 173.268 153.177 174.56 153.826L174.949 154.043C177.266 155.325 179.783 156.209 182.394 156.657C184.336 157.054 186.347 156.941 188.232 156.33C188.764 156.189 189.252 155.916 189.649 155.536C190.046 155.155 190.339 154.68 190.5 154.156C191.136 151.639 188.216 148.334 186.6 146.492C184.35 143.951 182.385 141.598 180.709 139.371L180.553 139.17C179.541 137.922 178.594 136.623 177.715 135.279C177.331 134.682 177.011 134.068 176.67 133.453C176.18 132.469 175.611 131.526 174.97 130.632C174.552 130.118 174.069 129.659 173.534 129.267C173.032 128.889 172.577 128.453 172.177 127.97C171.799 127.306 171.566 126.57 171.495 125.809C171.378 125.062 171.155 124.335 170.833 123.65C170.346 122.874 169.767 122.161 169.107 121.525C168.769 121.185 168.412 120.823 168.098 120.442C167.204 119.127 166.581 117.647 166.267 116.089L165.997 116.008C165.34 113.324 164.161 110.795 162.527 108.563C161.343 106.863 160.566 104.915 160.256 102.87C160.023 101.902 159.794 100.893 159.459 99.8765C158.626 97.3474 157.621 94.8776 156.452 92.4841C162.287 93.785 168.152 94.961 173.923 95.9405C188.689 98.5744 203.663 99.8764 218.662 99.8307C254.994 99.3077 288.442 86.092 308.415 78.19C311.838 76.8546 314.954 75.6467 317.482 74.6743C324.108 76.5148 328.279 84.2603 329.814 87.6414L330.66 89.5805C331.661 92.225 333.03 94.7161 334.728 96.9806C336.834 99.3431 339.337 101.322 342.125 102.828C344.602 104.199 347.313 105.098 350.12 105.479L351.844 105.722L352.14 105.742C354.439 106.34 356.88 106.042 358.967 104.91C359.093 104.918 359.478 104.563 359.419 104.179C359.412 104.049 359.371 103.924 359.3 103.815C359.229 103.706 359.131 103.618 359.015 103.559Z" fill="#15599A"/>
</g>
<defs>
<clipPath id="clip0">
<rect width="355.315" height="144.146" fill="white" transform="translate(10.2766 0.912109) rotate(3.83878)"/>
</clipPath>
</defs>
</svg>
