<svg width="100" height="100" viewBox="0 0 100 100" fill="none" xmlns="http://www.w3.org/2000/svg">
<circle cx="50.5" cy="50.5" r="36.6" fill="white" stroke="#1E4771" stroke-width="1.8"/>
<circle cx="12.3345" cy="19.7139" r="4.9" transform="rotate(95.0119 12.3345 19.7139)" stroke="white" stroke-opacity="0.5" stroke-width="1.8" stroke-dasharray="2 2"/>
<circle r="2.9" transform="matrix(-0.0873628 0.996177 0.996177 0.0873628 86.1671 86.1671)" stroke="white" stroke-opacity="0.5" stroke-width="1.8" stroke-dasharray="2 2"/>
<circle cx="76.8934" cy="9.50122" r="6.9" transform="rotate(95.0119 76.8934 9.50122)" stroke="white" stroke-opacity="0.5" stroke-width="1.8" stroke-dasharray="2 2"/>
<g clip-path="url(#clip0)">
<path d="M64.7422 39.79L60.2115 35.2592C59.8681 34.9156 59.311 34.9156 58.9673 35.2592C58.6237 35.6027 58.6237 36.1598 58.9673 36.5034L59.1397 36.6758L56.6647 39.1411C56.6485 39.1572 56.6221 39.1572 56.606 39.1411L55.8 38.335C55.2995 37.8345 54.6341 37.5588 53.9263 37.5588C53.2186 37.5588 52.5532 37.8345 52.0543 38.3333L36.1172 54.1874C35.3967 54.9079 35 55.8657 35 56.8846C35 57.9035 35.3967 58.8614 36.1172 59.5818L40.4197 63.8843C41.1636 64.6282 42.1405 64.9999 43.1175 64.9999C44.0937 64.9999 45.0699 64.6285 45.8124 63.886L61.6559 48.1255C62.1813 47.6001 62.4708 46.9014 62.4708 46.1582C62.4708 45.4152 62.1814 44.7165 61.6559 44.1911L60.9008 43.4359C60.8846 43.4197 60.8846 43.3934 60.9006 43.3773L63.3635 40.8998L63.4981 41.0343C63.6699 41.2061 63.895 41.2921 64.1202 41.2921C64.3453 41.2921 64.5705 41.2061 64.7422 41.0343C65.086 40.6906 65.086 40.1336 64.7422 39.79ZM59.6527 42.1367C58.9547 42.8389 58.9564 43.9799 59.6565 44.68L60.4116 45.4352C60.6047 45.6283 60.7111 45.885 60.7111 46.1581C60.7111 46.4312 60.6047 46.6879 60.4132 46.8794L44.5698 62.64C43.7687 63.4411 42.465 63.4411 41.6639 62.64L37.3614 58.3375C36.9733 57.9494 36.7596 57.4334 36.7596 56.8845C36.7596 56.3357 36.9733 55.8197 37.3598 55.4332L53.2968 39.5792C53.4649 39.4111 53.6885 39.3185 53.9261 39.3185C54.1639 39.3185 54.3874 39.4111 54.5555 39.5792L55.3616 40.3853C56.0625 41.0863 57.2041 41.0873 57.9063 40.3878L60.3661 37.9377L62.1013 39.6733L59.6527 42.1367Z" fill="#1E4771"/>
<path d="M47.7427 54.1794C47.5754 54.0119 47.4264 53.9331 47.2961 53.9428C47.1657 53.9526 47.0167 54.0412 46.8493 54.2085C46.5651 54.4926 46.5068 54.734 46.6742 54.9326C46.7481 55.0221 46.8036 55.0951 46.8407 55.1515C46.8776 55.2079 46.9165 55.2878 46.9574 55.3909C46.9983 55.4941 47.0002 55.5992 46.9632 55.7062C46.9262 55.8133 46.8532 55.9213 46.7443 56.0303C46.3901 56.3845 46.0183 56.367 45.629 55.9778L44.0816 54.4303C43.6924 54.0412 43.6729 53.6713 44.0232 53.3209C44.358 52.9862 44.7064 52.9881 45.0685 53.3268C45.2631 53.4981 45.5064 53.4377 45.7983 53.1458C45.9618 52.9823 46.0485 52.8354 46.0582 52.7049C46.0679 52.5746 45.9891 52.4257 45.8218 52.2583C45.4598 51.8963 45.0384 51.7494 44.5575 51.8174C44.0768 51.8856 43.6223 52.1338 43.1942 52.5619C42.7776 52.9785 42.5508 53.427 42.5139 53.9078C42.4768 54.3886 42.6959 54.8664 43.1708 55.3413L44.7182 56.8887C45.1932 57.3637 45.6708 57.5826 46.1516 57.5457C46.6324 57.5087 47.081 57.2819 47.4975 56.8654C47.9257 56.4372 48.1681 55.9769 48.2245 55.4845C48.2809 54.992 48.1204 54.557 47.7427 54.1794Z" fill="#1E4771"/>
<path d="M50.8024 50.8041L49.2549 49.2566C48.7801 48.7818 48.302 48.563 47.8209 48.6003C47.3398 48.6376 46.8827 48.8729 46.4495 49.3061C46.0218 49.7339 45.7898 50.1877 45.7534 50.6678C45.7172 51.1479 45.9365 51.6254 46.4114 52.1003L47.9588 53.6477C48.4337 54.1227 48.9112 54.3419 49.3913 54.3056C49.8715 54.2693 50.3253 54.0373 50.7529 53.6096C51.1862 53.1764 51.4214 52.7193 51.4588 52.2382C51.496 51.7571 51.2773 51.279 50.8024 50.8041ZM49.9588 52.8154C49.622 53.1522 49.259 53.126 48.8697 52.7367L47.3223 51.1893C46.933 50.8002 46.9068 50.4371 47.2436 50.1003C47.588 49.7559 47.955 49.7783 48.3442 50.1675L49.8916 51.7149C50.2808 52.1042 50.3031 52.471 49.9588 52.8154Z" fill="#1E4771"/>
<path d="M55.0765 48.971C55.0492 48.8347 54.9831 48.714 54.8779 48.6089C54.7728 48.5038 54.654 48.4399 54.5212 48.4168C54.3885 48.3939 54.2849 48.4195 54.2106 48.4939L52.6709 50.0335L52.6178 49.9805C52.5234 49.886 52.4831 49.7197 52.497 49.4814C52.5111 49.2431 52.5481 48.9757 52.608 48.6797C52.6679 48.3838 52.7149 48.0769 52.7493 47.7592C52.7837 47.4416 52.7591 47.1158 52.6757 46.7821C52.5924 46.4484 52.4325 46.1634 52.1963 45.9272C51.8342 45.5651 51.4094 45.4141 50.9222 45.4743C50.435 45.5345 50.0097 45.7464 49.6461 46.1099C49.2934 46.4626 49.0884 46.8719 49.0313 47.3378C48.9742 47.8038 49.1148 48.2061 49.4535 48.5447C49.7688 48.86 50.0608 48.8833 50.3298 48.6143C50.472 48.4721 50.5519 48.3237 50.5696 48.1684C50.5874 48.0134 50.5499 47.8894 50.4568 47.7964C50.2993 47.6388 50.2256 47.4822 50.2357 47.3267C50.2458 47.1712 50.3158 47.0283 50.446 46.8981C50.5959 46.7483 50.7506 46.6782 50.9102 46.6878C51.0698 46.6976 51.2046 46.7574 51.3147 46.8676C51.4525 47.0054 51.5301 47.2112 51.5475 47.485C51.5649 47.7588 51.548 48.0552 51.4963 48.3744L51.3617 49.312C51.318 49.6222 51.3176 49.924 51.361 50.2174C51.4045 50.5108 51.5103 50.7417 51.6787 50.9102L52.2487 51.48C52.327 51.5584 52.4373 51.5812 52.5798 51.5485C52.7223 51.5157 52.8381 51.4546 52.9277 51.365L55.0064 49.2864C55.0803 49.2124 55.1036 49.1073 55.0765 48.971Z" fill="#1E4771"/>
<path d="M56.9511 46.3039L53.7849 43.1376C53.4414 42.794 52.8842 42.794 52.5407 43.1376C52.1971 43.4811 52.1971 44.0382 52.5407 44.3818L55.7069 47.5482C55.8787 47.72 56.1039 47.8059 56.329 47.8059C56.5541 47.8059 56.7793 47.72 56.9511 47.5482C57.2947 47.2046 57.2947 46.6475 56.9511 46.3039Z" fill="#1E4771"/>
<path d="M44.7152 58.5402L41.549 55.3739C41.2055 55.0303 40.6483 55.0303 40.3048 55.3739C39.9612 55.7175 39.9612 56.2745 40.3048 56.6181L43.471 59.7844C43.6428 59.9562 43.868 60.0422 44.0931 60.0422C44.3182 60.0422 44.5435 59.9563 44.7152 59.7844C45.0588 59.4408 45.0588 58.8838 44.7152 58.5402Z" fill="#1E4771"/>
</g>
<defs>
<clipPath id="clip0">
<rect width="30" height="30" fill="white" transform="translate(35 35)"/>
</clipPath>
</defs>
</svg>
