<svg width="224" height="140" viewBox="0 0 224 140" fill="none" xmlns="http://www.w3.org/2000/svg">
<g clip-path="url(#clip0)">
<path d="M3.51991 79.3102C7.14778 76.3032 11.7137 71.7154 11.7779 71.651C11.8079 70.5814 11.7308 69.4731 11.7779 68.412C11.8393 67.3629 11.9825 66.3201 12.2062 65.2934C14.1208 57.0027 15.8555 49.3993 21.6036 42.7797C30.7524 32.2509 42.5055 25.6227 55.4022 21.0606C64.3969 17.8818 73.8456 17.6241 83.2644 18.5863C85.1875 18.7882 86.7552 18.5562 88.19 17.7272C88.19 17.7272 103.896 -1.38436 116.498 0.729124C129.099 2.8426 110.27 14.4753 119.414 25.7773C123.124 27.5981 126.667 29.7428 130.003 32.1865C149.14 46.2849 163.15 64.765 175.636 84.6541C178.081 88.5589 180.775 92.3047 183.345 96.1365C184.133 97.3092 185.059 97.7688 186.528 97.365C189.149 96.639 191.848 96.1923 194.46 95.4577C201.742 93.4116 209.441 93.3908 216.733 95.3976C218.826 96.0279 220.861 96.8385 222.815 97.8204C223.342 98.0824 224.07 98.9759 223.971 99.3711C223.8 99.9682 223.055 100.578 222.417 100.823C220.742 101.467 218.952 101.807 217.277 102.464C210.424 105.162 204.457 109.29 198.859 114.062C198.319 114.522 197.339 114.96 196.76 114.78C194.854 114.187 194.19 115.055 193.762 116.687C193.552 117.49 193.184 118.461 192.567 118.908C187.821 122.344 182.93 125.562 178.253 129.067C176.968 130.034 176.068 131.645 175.254 133.135C174.196 135.094 173.417 137.203 172.517 139.248C172.153 139.802 172.089 139.579 171.798 139.304C171.245 138.08 170.483 136.903 170.183 135.618C168.71 129.308 168.47 123.058 171.498 117.039C173.156 113.749 174.471 110.256 176.385 107.133C178.527 103.611 178.291 100.26 176.582 96.8581C175.553 94.7422 174.257 92.7673 172.727 90.9816C166.731 84.2503 159.835 78.6272 151.491 75.0876C137.357 69.0736 123.012 63.9188 107.323 64.7392C98.2641 65.2204 89.218 66.0022 80.1805 66.8098C77.0366 67.0933 73.9313 67.8622 70.7574 68.4206C71.0102 68.8502 71.2372 69.3571 71.5455 69.791C74.0726 73.3779 76.4498 77.0593 80.9686 78.6315C81.9751 78.9837 83.41 79.9804 83.3329 81.5526C82.5705 82.8112 81.0328 83.0818 79.9449 83.0002C75.9058 82.7124 71.8068 82.3945 67.8834 81.4753C61.6899 80.0276 56.4088 77.0335 53.1364 71.1398C52.3172 69.8185 51.1244 68.7717 49.7098 68.1328C45.0326 65.985 40.2868 66.6379 35.9137 68.9146C29.8915 72.0548 24.1135 75.6589 18.2027 79.0095C16.6436 79.8944 15.4743 80.4013 13.9538 81.1574C-2.14244 90.1311 -0.129364 82.3559 3.51991 79.3102Z" fill="#15599A"/>
</g>
<defs>
<clipPath id="clip0">
<rect width="223" height="139" fill="white" transform="matrix(-1 0 0 1 223.973 0.569336)"/>
</clipPath>
</defs>
</svg>
