<svg width="77" height="99" viewBox="0 0 77 99" fill="none" xmlns="http://www.w3.org/2000/svg">
<rect width="38.0769" height="38.0769" transform="translate(19.4615 28.4615)" fill="white"/>
<path d="M54.5637 49.8798C54.9167 49.8798 55.2618 49.7751 55.5553 49.579C55.8488 49.3829 56.0776 49.1041 56.2127 48.778C56.3478 48.4518 56.3831 48.0929 56.3143 47.7467C56.2454 47.4005 56.0754 47.0825 55.8258 46.8328C55.5762 46.5832 55.2581 46.4132 54.9119 46.3444C54.5657 46.2755 54.2068 46.3108 53.8807 46.4459C53.5545 46.581 53.2758 46.8098 53.0797 47.1033C52.8835 47.3968 52.7789 47.7419 52.7789 48.0949C52.7794 48.5681 52.9676 49.0218 53.3022 49.3564C53.6368 49.691 54.0905 49.8793 54.5637 49.8798ZM54.5637 47.5C54.6814 47.5 54.7964 47.5349 54.8942 47.6002C54.9921 47.6656 55.0683 47.7585 55.1134 47.8672C55.1584 47.976 55.1702 48.0956 55.1472 48.211C55.1243 48.3264 55.0676 48.4324 54.9844 48.5156C54.9012 48.5988 54.7952 48.6555 54.6798 48.6784C54.5644 48.7014 54.4447 48.6896 54.336 48.6446C54.2273 48.5996 54.1344 48.5233 54.069 48.4255C54.0037 48.3276 53.9688 48.2126 53.9688 48.0949C53.9689 47.9372 54.0317 47.786 54.1432 47.6744C54.2547 47.5629 54.406 47.5001 54.5637 47.5Z" fill="#1E4771"/>
<path d="M49.8041 46.3101C50.1571 46.3101 50.5022 46.2054 50.7957 46.0093C51.0892 45.8131 51.318 45.5344 51.4531 45.2082C51.5882 44.8821 51.6235 44.5232 51.5547 44.177C51.4858 43.8308 51.3158 43.5127 51.0662 43.2631C50.8166 43.0135 50.4985 42.8435 50.1523 42.7747C49.8061 42.7058 49.4472 42.7411 49.1211 42.8762C48.7949 43.0113 48.5162 43.2401 48.32 43.5336C48.1239 43.8271 48.0192 44.1722 48.0192 44.5252C48.0198 44.9984 48.208 45.4521 48.5426 45.7867C48.8772 46.1213 49.3309 46.3095 49.8041 46.3101ZM49.8041 43.9303C49.9218 43.9303 50.0368 43.9652 50.1346 44.0305C50.2325 44.0959 50.3087 44.1888 50.3538 44.2975C50.3988 44.4062 50.4106 44.5259 50.3876 44.6413C50.3647 44.7567 50.308 44.8627 50.2248 44.9459C50.1416 45.0291 50.0356 45.0858 49.9202 45.1087C49.8048 45.1317 49.6851 45.1199 49.5764 45.0749C49.4677 45.0298 49.3748 44.9536 49.3094 44.8557C49.244 44.7579 49.2091 44.6429 49.2091 44.5252C49.2093 44.3675 49.2721 44.2162 49.3836 44.1047C49.4951 43.9932 49.6464 43.9304 49.8041 43.9303Z" fill="#1E4771"/>
<path d="M49.8041 49.8798C50.1327 49.8798 50.399 49.6134 50.399 49.2848C50.399 48.9563 50.1327 48.6899 49.8041 48.6899C49.4755 48.6899 49.2091 48.9563 49.2091 49.2848C49.2091 49.6134 49.4755 49.8798 49.8041 49.8798Z" fill="#1E4771"/>
<path d="M54.5637 43.9303C54.8923 43.9303 55.1586 43.6639 55.1586 43.3353C55.1586 43.0067 54.8923 42.7404 54.5637 42.7404C54.2351 42.7404 53.9688 43.0067 53.9688 43.3353C53.9688 43.6639 54.2351 43.9303 54.5637 43.9303Z" fill="#1E4771"/>
<path d="M55.0945 58.2091H55.1587C55.3164 58.2091 55.4678 58.1464 55.5793 58.0349C55.6909 57.9233 55.7536 57.772 55.7536 57.6142V54.0445C55.7536 53.8867 55.6909 53.7353 55.5793 53.6238C55.4678 53.5122 55.3164 53.4495 55.1587 53.4495H53.9688V52.2596H54.5637C54.7215 52.2596 54.8728 52.1969 54.9844 52.0853C55.096 51.9738 55.1587 51.8224 55.1587 51.6646C55.1587 51.5069 55.096 51.3555 54.9844 51.2439C54.8728 51.1324 54.7215 51.0697 54.5637 51.0697H49.8041C49.6463 51.0697 49.495 51.1324 49.3834 51.2439C49.2718 51.3555 49.2091 51.5069 49.2091 51.6646C49.2091 51.8224 49.2718 51.9738 49.3834 52.0853C49.495 52.1969 49.6463 52.2596 49.8041 52.2596H50.399V53.9055C50.1761 54.1051 50.0067 54.3574 49.9064 54.6394H46.5712L43.2596 49.12V45.7151C43.2588 45.0296 43.0216 44.3654 42.5881 43.8343C42.1546 43.3033 41.5513 42.9379 40.8798 42.7999V37.3858C40.8798 35.3345 40.0649 33.3672 38.6145 31.9168C37.164 30.4663 35.1967 29.6514 33.1454 29.6514C31.0942 29.6514 29.1269 30.4663 27.6764 31.9168C26.2259 33.3672 25.4111 35.3345 25.4111 37.3858V42.7999C24.7396 42.9379 24.1363 43.3033 23.7028 43.8343C23.2693 44.3654 23.0321 45.0296 23.0313 45.7151V49.2392L20.6584 64.6633C20.6453 64.7481 20.6508 64.8347 20.6744 64.9171C20.698 64.9996 20.7391 65.076 20.7949 65.141C20.8508 65.2061 20.92 65.2584 20.998 65.2942C21.0759 65.33 21.1606 65.3485 21.2464 65.3485H40.2849C40.4426 65.3485 40.594 65.2859 40.7056 65.1743C40.8171 65.0627 40.8798 64.9114 40.8798 64.7536V57.7546L42.1326 60.2601C42.182 60.3589 42.2579 60.442 42.3519 60.5001C42.4459 60.5582 42.5542 60.5889 42.6647 60.5889H48.0624C47.96 61.2939 48.0401 62.0133 48.2951 62.6785C48.5501 63.3436 48.9714 63.9322 49.5188 64.3881C50.0662 64.8439 50.7214 65.1517 51.4217 65.2821C52.1221 65.4124 52.8441 65.361 53.5189 65.1326C54.1936 64.9043 54.7985 64.5067 55.2757 63.9778C55.753 63.4489 56.0866 62.8065 56.2447 62.1119C56.4027 61.4173 56.38 60.6938 56.1786 60.0105C55.9773 59.3272 55.604 58.707 55.0945 58.2091ZM54.5637 57.0192H51.5889C51.4312 57.019 51.28 56.9563 51.1684 56.8448C51.0569 56.7332 50.9942 56.582 50.994 56.4243V55.2344C50.9942 55.0766 51.0569 54.9254 51.1684 54.8139C51.28 54.7023 51.4312 54.6396 51.5889 54.6394H54.5637V57.0192ZM51.5889 52.2596H52.7788V53.4495H51.5889V52.2596ZM42.0697 45.7151V48.6899H35.5252V46.9401C36.3355 46.5371 37.0307 45.9356 37.5461 45.1917C38.0615 44.4478 38.3803 43.5856 38.4729 42.6853C38.9144 42.5996 39.3306 42.4144 39.6899 42.1438V43.3353C39.6899 43.4931 39.7526 43.6444 39.8642 43.756C39.9757 43.8676 40.1271 43.9303 40.2849 43.9303C40.7581 43.9308 41.2117 44.119 41.5463 44.4536C41.8809 44.7883 42.0692 45.2419 42.0697 45.7151ZM29.9327 50.5937L28.9808 49.8798H30.9929L32.5505 52.995V55.8293L30.1707 52.6562V51.0697C30.1707 50.9773 30.1492 50.8862 30.1079 50.8036C30.0666 50.721 30.0066 50.6491 29.9327 50.5937ZM28.9808 37.9807H37.3101V41.0465L34.671 41.4864L34.2725 40.6894C34.2231 40.5906 34.1471 40.5075 34.0532 40.4494C33.9592 40.3913 33.8509 40.3606 33.7404 40.3606H32.5505C32.44 40.3605 32.3317 40.3913 32.2377 40.4494C32.1437 40.5075 32.0677 40.5906 32.0183 40.6894L31.6198 41.4864L28.9808 41.0465V37.9807ZM38.5 38.0831C38.8478 38.2062 39.1489 38.4341 39.3619 38.7354C39.5748 39.0367 39.6892 39.3966 39.6892 39.7656C39.6892 40.1346 39.5748 40.4945 39.3619 40.7958C39.1489 41.0971 38.8478 41.325 38.5 41.4481V38.0831ZM30.906 36.7908L35.3215 34.5831L36.7934 36.7908H30.906ZM27.7909 41.4481C27.4431 41.325 27.142 41.0971 26.929 40.7958C26.716 40.4945 26.6017 40.1346 26.6017 39.7656C26.6017 39.3966 26.716 39.0367 26.929 38.7354C27.142 38.4341 27.4431 38.2062 27.7909 38.0831V41.4481ZM31.8577 42.7323C31.9832 42.7533 32.1121 42.7334 32.2255 42.6756C32.3389 42.6179 32.4307 42.5253 32.4876 42.4115L32.9182 41.5505H33.3726L33.8032 42.4115C33.8601 42.5253 33.952 42.6178 34.0654 42.6755C34.1787 42.7332 34.3076 42.7532 34.4331 42.7323L37.3073 42.2532C37.2798 43.3388 36.8292 44.3706 36.0517 45.1286C35.2742 45.8867 34.2313 46.3109 33.1454 46.3109C32.0596 46.3109 31.0166 45.8867 30.2391 45.1286C29.4616 44.3706 29.0111 43.3388 28.9835 42.2532L31.8577 42.7323ZM33.1454 47.5C33.5459 47.4997 33.945 47.4544 34.3353 47.3651V49.1444L33.1454 51.5242L31.9555 49.1444V47.3651C32.3459 47.4544 32.745 47.4997 33.1454 47.5ZM33.7404 52.995L35.298 49.8798H37.3101L36.3582 50.5937C36.2843 50.6491 36.2243 50.721 36.183 50.8036C36.1417 50.8862 36.1202 50.9773 36.1202 51.0697V52.6562L33.7404 55.8293V52.995ZM33.1454 30.8413C34.8805 30.8433 36.544 31.5334 37.7709 32.7603C38.9978 33.9872 39.6879 35.6507 39.6899 37.3858V37.3874C39.2659 37.0679 38.7637 36.8683 38.236 36.8097L36.0202 33.486C35.9398 33.3654 35.8181 33.2783 35.6779 33.2411C35.5378 33.2039 35.3888 33.2191 35.2592 33.284L28.2379 36.7946C27.6451 36.8236 27.0748 37.0301 26.601 37.3874V37.3858C26.6029 35.6507 27.2931 33.9872 28.52 32.7603C29.7469 31.5334 31.4103 30.8433 33.1454 30.8413ZM26.006 43.9303C26.1638 43.9303 26.3151 43.8676 26.4267 43.756C26.5383 43.6444 26.601 43.4931 26.601 43.3353V42.1438C26.9603 42.4144 27.3765 42.5996 27.818 42.6853C27.9106 43.5856 28.2294 44.4478 28.7448 45.1917C29.2602 45.9356 29.9553 46.5371 30.7656 46.9401V48.6899H24.2212V45.7151C24.2217 45.2419 24.4099 44.7883 24.7445 44.4536C25.0791 44.119 25.5328 43.9308 26.006 43.9303ZM24.1366 49.8798H26.9976L28.9808 51.3672V52.8545C28.9808 52.9833 29.0225 53.1085 29.0998 53.2115L32.5505 57.8124V64.1586H26.601V55.2344C26.601 55.0766 26.5383 54.9252 26.4267 54.8137C26.3151 54.7021 26.1638 54.6394 26.006 54.6394C25.8482 54.6394 25.6969 54.7021 25.5853 54.8137C25.4737 54.9252 25.4111 55.0766 25.4111 55.2344V64.1586H21.9399L24.1366 49.8798ZM43.0323 59.399L40.817 54.9683C40.757 54.8484 40.6584 54.7523 40.537 54.6955C40.4156 54.6387 40.2786 54.6246 40.1482 54.6554C40.0177 54.6862 39.9015 54.7601 39.8183 54.8652C39.7352 54.9703 39.6899 55.1003 39.6899 55.2344V64.1586H33.7404V57.8124L37.1911 53.2115C37.2683 53.1085 37.3101 52.9833 37.3101 52.8545V51.3672L39.2933 49.8798H42.3276L45.7239 55.5405C45.7768 55.6286 45.8516 55.7015 45.9411 55.7522C46.0305 55.8028 46.1316 55.8294 46.2344 55.8293H49.8041V56.4243C49.8038 56.8255 49.9394 57.215 50.1889 57.5292C49.4185 57.9519 48.8004 58.606 48.4219 59.399H43.0323ZM52.1839 64.1586C51.5955 64.1586 51.0204 63.9842 50.5312 63.6573C50.042 63.3304 49.6607 62.8658 49.4356 62.3223C49.2104 61.7787 49.1515 61.1806 49.2663 60.6035C49.3811 60.0265 49.6644 59.4964 50.0804 59.0804C50.4965 58.6644 51.0265 58.3811 51.6035 58.2663C52.1806 58.1515 52.7787 58.2104 53.3223 58.4356C53.8659 58.6607 54.3304 59.042 54.6573 59.5312C54.9842 60.0204 55.1587 60.5955 55.1587 61.1839C55.1578 61.9726 54.8441 62.7287 54.2864 63.2864C53.7287 63.8441 52.9726 64.1577 52.1839 64.1586Z" fill="#1E4771"/>
<circle cx="38.5" cy="47.5" r="36.6" stroke="#1E4771" stroke-width="1.8"/>
<circle cx="6" cy="6" r="4.9" stroke="#247ED9" stroke-opacity="0.5" stroke-width="1.8" stroke-dasharray="2 2"/>
<circle r="2.9" transform="matrix(1 0 0 -1 73 12)" stroke="#247ED9" stroke-opacity="0.5" stroke-width="1.8" stroke-dasharray="2 2"/>
<circle cx="64" cy="91" r="6.9" stroke="#247ED9" stroke-opacity="0.5" stroke-width="1.8" stroke-dasharray="2 2"/>
</svg>
