<svg width="100" height="100" viewBox="0 0 100 100" fill="none" xmlns="http://www.w3.org/2000/svg">
<circle cx="49.5" cy="50.5" r="36.6" fill="white" stroke="#1E4771" stroke-width="1.8"/>
<path d="M60.0274 47.0117H51.7787L58.9011 34.4884C59.0764 34.1803 59.0743 33.8018 58.8961 33.4952C58.7179 33.1886 58.3898 33 58.0352 33H46.082C45.653 33 45.2719 33.275 45.1368 33.6822L39.1602 51.6781C39.0593 51.9818 39.1104 52.3154 39.2977 52.5751C39.485 52.8345 39.7854 52.9883 40.1055 52.9883H48.5585L43.1736 65.613C42.9819 66.0626 43.1443 66.5845 43.5573 66.8457C43.9703 67.1069 44.5116 67.0299 44.8356 66.6644L60.7731 48.6683C61.3407 48.027 60.8847 47.0117 60.0274 47.0117ZM47.4153 60.7467L50.9826 52.3831C51.2622 51.7274 50.7808 50.9961 50.0664 50.9961H41.4857L46.8008 34.9922H56.3226L49.2005 47.5152C48.8239 48.1775 49.3025 49.0039 50.0664 49.0039H57.8147L47.4153 60.7467Z" fill="#1E4771"/>
<circle cx="15.0126" cy="13.0125" r="4.9" transform="rotate(162.611 15.0126 13.0125)" stroke="white" stroke-opacity="0.5" stroke-width="1.8" stroke-dasharray="2 2"/>
<circle r="2.9" transform="matrix(-0.954299 0.298853 0.298853 0.954299 22.5063 85.5063)" stroke="white" stroke-opacity="0.5" stroke-width="1.8" stroke-dasharray="2 2"/>
<circle cx="90.5189" cy="75.519" r="6.9" transform="rotate(162.611 90.5189 75.519)" stroke="white" stroke-opacity="0.5" stroke-width="1.8" stroke-dasharray="2 2"/>
</svg>
