<svg width="100" height="100" viewBox="0 0 100 100" fill="none" xmlns="http://www.w3.org/2000/svg">
<circle cx="49.5" cy="50.5" r="36.6" fill="white" stroke="#1E4771" stroke-width="1.8"/>
<path d="M68.1813 40.1041L68.1755 40.084C68.1164 39.8395 67.9352 39.6388 67.6914 39.5579C67.6009 39.5279 65.4397 38.8248 62.3539 39.0414C59.5131 39.2406 55.314 40.291 51.4407 44.1642C47.5675 48.0375 46.5171 52.2366 46.318 55.0772C46.1017 58.1631 46.8048 60.3241 46.8348 60.4146C46.9081 60.6354 47.0813 60.8085 47.302 60.8818C47.3805 60.9078 49.0154 61.4398 51.4603 61.4398C51.8351 61.4398 52.2292 61.4273 52.6394 61.3986C55.48 61.1994 59.6791 60.149 63.5524 56.2759C70.4056 49.4226 68.6107 41.6022 68.1813 40.1041ZM60.6141 40.7525C61.1966 40.6401 61.7898 40.5608 62.3938 40.5159C63.8864 40.4051 65.1507 40.5345 66.0117 40.6811C65.9749 40.7064 65.9397 40.7348 65.9071 40.7675L60.6141 46.0604V40.7525ZM59.1404 41.1164V47.5341L54.2015 52.4731V43.7635C54.2015 43.7394 54.2001 43.7157 54.1979 43.6922C55.7263 42.5089 57.3778 41.6485 59.1404 41.1164ZM47.788 55.1802C48.0521 51.4131 49.6316 48.0573 52.4827 45.2063C52.564 45.1251 52.6457 45.0451 52.7278 44.9659V53.914C52.7278 53.9245 52.7289 53.9347 52.7293 53.9451L47.9536 58.7208C47.8103 57.8756 47.6854 56.644 47.788 55.1802ZM52.5994 59.9239C51.116 60.034 49.8579 59.9068 48.9972 59.7612L51.299 57.4595C51.3015 57.4595 51.3038 57.4599 51.3063 57.4599H59.8017C57.62 58.9033 55.209 59.7302 52.5994 59.9239ZM62.5103 55.2337C62.2487 55.4953 61.9827 55.7461 61.7127 55.9863H52.7723L57.0489 51.7096H65.2369C64.5596 52.8849 63.6705 54.0735 62.5103 55.2337ZM65.9842 50.236H58.5225L66.949 41.8094C66.9805 41.778 67.0078 41.7441 67.0324 41.7089C67.338 43.4866 67.5311 46.7185 65.9842 50.236Z" fill="#1E4771"/>
<path d="M48.2723 44.1642C44.399 40.291 40.1999 39.2405 37.3591 39.0413C34.2734 38.8249 32.1121 39.5279 32.0216 39.5579C31.7778 39.6388 31.5966 39.8395 31.5375 40.084L31.5317 40.1041C31.1023 41.6023 29.3074 49.4227 36.1607 56.2759C38.335 58.4502 40.8253 59.9615 43.5623 60.7678C43.6318 60.7883 43.7019 60.798 43.7709 60.798C44.0892 60.798 44.3828 60.5901 44.4774 60.2693C44.5924 59.8789 44.3691 59.4692 43.9788 59.3542C41.4808 58.6183 39.201 57.232 37.2028 55.2339C35.4612 53.4922 34.3289 51.6867 33.6101 49.9582H40.9126L44.469 53.5146C44.6129 53.6585 44.8015 53.7305 44.9901 53.7305C45.1786 53.7305 45.3673 53.6585 45.5111 53.5146C45.7988 53.2269 45.7988 52.7603 45.5111 52.4725L44.6987 51.6603V43.098C45.5813 43.6989 46.4259 44.402 47.2302 45.2063C47.5179 45.494 47.9845 45.494 48.2723 45.2063C48.5601 44.9186 48.5601 44.452 48.2723 44.1642ZM37.256 40.5114C37.5787 40.5341 37.8982 40.5671 38.2147 40.609V45.1763L33.7638 40.7254C33.7468 40.7084 33.7291 40.6926 33.7109 40.6776C34.5564 40.534 35.7899 40.4085 37.256 40.5114ZM33.0868 48.4846V48.4845C32.253 45.6755 32.4257 43.1986 32.6787 41.7199C32.6923 41.7361 32.7064 41.7521 32.7217 41.7675L39.4388 48.4847H33.0868V48.4846ZM43.2251 50.1867L39.6883 46.6499V40.8781C40.9196 41.1678 42.0997 41.6118 43.2251 42.2082V50.1867Z" fill="#1E4771"/>
<path d="M44.9101 56.8417C43.4863 56.4222 42.1345 55.7498 40.8922 54.8434C40.5634 54.6034 40.1026 54.6755 39.8626 55.0042C39.6227 55.3329 39.6948 55.7939 40.0235 56.0338C41.4029 57.0405 42.9068 57.7878 44.4936 58.2553C44.5631 58.2758 44.6332 58.2855 44.7022 58.2855C45.0205 58.2855 45.3142 58.0776 45.4087 57.7567C45.5237 57.3663 45.3005 56.9566 44.9101 56.8417Z" fill="#1E4771"/>
<path d="M39.1201 53.3212L39.1175 53.3186C38.8298 53.031 38.3646 53.0322 38.0767 53.3199C37.789 53.6076 37.7903 54.0755 38.078 54.3633C38.2219 54.5072 38.4105 54.5791 38.5991 54.5791C38.7876 54.5791 38.9762 54.5072 39.1201 54.3633C39.4078 54.0755 39.4078 53.609 39.1201 53.3212Z" fill="#1E4771"/>
<circle cx="85.175" cy="9.72345" r="4.9" transform="rotate(-101.613 85.175 9.72345)" stroke="white" stroke-opacity="0.5" stroke-width="1.8" stroke-dasharray="2 2"/>
<circle r="2.9" transform="matrix(-0.201302 -0.979529 -0.979529 0.201302 9.36167 26.0598)" stroke="white" stroke-opacity="0.5" stroke-width="1.8" stroke-dasharray="2 2"/>
<circle cx="23.3579" cy="90.0263" r="6.9" transform="rotate(-101.613 23.3579 90.0263)" stroke="white" stroke-opacity="0.5" stroke-width="1.8" stroke-dasharray="2 2"/>
</svg>
