<svg width="18" height="18" viewBox="0 0 18 18" fill="none" xmlns="http://www.w3.org/2000/svg">
<path d="M1.65424 10.6172H0.529236C0.237755 10.6172 0.00189209 10.8531 0.00189209 11.1445V17.4727C0.00189209 17.7641 0.237755 18 0.529236 18H1.65424C2.5266 18 3.23627 17.2903 3.23627 16.418V12.1992C3.23627 11.3269 2.52664 10.6172 1.65424 10.6172Z" fill="#1D4087"/>
<path d="M17.8437 11.6403C17.7804 11.5349 17.6961 11.4505 17.6011 11.3767C17.2128 11.037 16.5586 11.0691 16.1773 11.4822L13.7832 14.2454L13.7093 14.3298C13.4141 14.6567 12.9922 14.8361 12.5492 14.8361H8.45703C8.16168 14.8361 7.92969 14.604 7.92969 14.3087C7.92969 14.0134 8.16168 13.7814 8.45703 13.7814H11.6738C12.2539 13.7814 12.7285 13.3068 12.7285 12.7267V12.7161C12.718 12.1361 12.2539 11.672 11.6738 11.672H9.76484C9.44858 11.672 9.10967 11.5559 8.83672 11.3239C7.55004 10.1954 5.67266 10.1216 4.29102 11.0814V17.5677C5.33516 17.8525 6.41094 18.0001 7.49723 18.0001H12.2012C13.3613 18.0001 14.4582 17.4516 15.1543 16.5235L17.6856 13.1485C18.0548 12.6638 18.0827 11.999 17.8437 11.6403Z" fill="#1D4087"/>
<path d="M14.1421 1.01936C13.5572 0.362004 12.7464 0 11.859 0C10.8686 0 10.0101 0.468316 9.37623 1.35429C9.3287 1.4207 9.28422 1.48714 9.24256 1.55289C9.20094 1.48711 9.15647 1.4207 9.10894 1.35429C8.4751 0.468316 7.61656 0 6.62613 0C5.73879 0 4.92798 0.362004 4.34313 1.01932C3.78808 1.64313 3.48236 2.47707 3.48236 3.36755C3.48236 4.33522 3.85786 5.22816 4.664 6.17773C5.36744 7.00618 6.37638 7.85777 7.54463 8.84384C7.97634 9.20823 8.42279 9.58504 8.89719 9.99619C8.9963 10.0821 9.11941 10.125 9.24256 10.125C9.36568 10.125 9.48883 10.0821 9.58794 9.99619C10.0623 9.58511 10.5086 9.20834 10.9404 8.84401C11.6907 8.21071 12.3386 7.66382 12.9009 7.13331C13.9926 6.1033 15.0028 4.93418 15.0028 3.36758C15.0028 2.47711 14.6971 1.64317 14.1421 1.01936Z" fill="#1D4087"/>
</svg>
