<svg width="233" height="173" viewBox="0 0 233 173" fill="none" xmlns="http://www.w3.org/2000/svg">
<path d="M0 114.44C0.71 114.12 1.42 113.78 2.14 113.44C11.67 109.33 21.22 105.24 30.74 101.09C32.1293 100.471 33.4669 99.7421 34.74 98.91C36.9 97.54 37.08 96.91 36.6 94.32C34.89 85.32 31.95 76.72 29.42 67.97C28.49 64.75 27.73 61.48 27.03 58.2C26.5811 56.3259 26.6121 54.3689 27.12 52.51C27.95 52.79 28.68 52.99 29.38 53.28C34.6505 55.4981 39.3261 58.9235 43.03 63.28C48.73 69.86 54.15 76.69 59.69 83.41C60.44 84.33 61.16 85.29 62.01 86.41C62.83 85.8 63.54 85.3 64.22 84.77C71.84 78.77 79.31 72.65 87.11 66.94C97.1314 59.477 108.179 53.5019 119.91 49.2C124.1 47.7 128.4 46.49 132.91 45.05C131.382 44.5698 129.77 44.4199 128.18 44.61C123.979 45.0705 119.872 46.1663 116 47.86C112.6 49.24 109.27 50.79 105.9 52.26C105.84 52.15 105.69 51.96 105.73 51.92C110.01 46.07 112.45 39.38 114.12 32.45C116.26 23.52 117.99 14.45 119.89 5.52C120.25 3.83 120.58 2.14 121.01 0C123.22 1.85 125.16 3.36 126.96 5C136.646 13.6348 145.089 23.5691 152.05 34.52C153.172 36.2668 154.174 38.0876 155.05 39.97C155.282 40.677 155.744 41.2863 156.361 41.7012C156.979 42.116 157.718 42.3127 158.46 42.26C164.304 42.3204 170.102 43.3024 175.64 45.17C184.04 48.1 191.11 53.09 197.48 59.17C204.792 66.2394 211.277 74.1166 216.81 82.65C221.87 90.32 226.54 98.24 231.47 106C231.92 106.655 232.194 107.415 232.265 108.206C232.337 108.998 232.204 109.795 231.88 110.52C230.552 113.775 228.738 116.809 226.5 119.52C223.227 123.76 219.543 127.666 215.5 131.18C215.19 131.44 214.87 131.68 214.58 131.95C213.566 132.911 212.357 133.644 211.036 134.1C209.715 134.555 208.311 134.722 206.92 134.59C200.527 134.143 194.274 132.508 188.48 129.77C179.69 125.69 171.74 120.41 165.41 112.94C165.155 112.717 164.877 112.523 164.58 112.36C164.244 113.762 164.282 115.227 164.69 116.61C165.609 119.854 167.227 122.858 169.43 125.41C175.457 132.898 183.713 138.271 193 140.75C196.42 141.67 200.06 141.81 203.7 142.32C191.48 152.92 177.7 160.54 161.34 163.14C144.98 165.74 129.34 163.03 113.91 157.14C112.08 162.24 113.27 167.14 113.6 172.01C112 172.67 110.6 172.16 109.23 171.83C101.371 170.04 94.3328 165.68 89.23 159.44C84.33 153.44 82.93 146.49 84.75 138.91C84.8523 138.362 85.0884 137.848 85.4374 137.414C85.7863 136.979 86.2372 136.638 86.75 136.42C94.83 132.5 103.14 129.23 112.03 127.7C115.015 127.091 118.083 126.997 121.1 127.42C125.84 128.23 129.05 130.55 130.04 135.42C130.04 135.54 130.23 135.64 130.33 135.75C130.701 133.962 130.441 132.1 129.593 130.483C128.745 128.865 127.362 127.592 125.68 126.88C122.566 125.571 119.153 125.135 115.81 125.62C107.13 126.49 98.98 129.26 90.95 132.47C88.66 133.39 86.39 134.36 83.95 135.37C83.4 134.75 82.84 134.2 82.37 133.59C77.99 127.88 73.58 122.19 69.31 116.4C68.9237 115.719 68.3173 115.19 67.5904 114.899C66.8635 114.608 66.0593 114.573 65.31 114.8C49.3102 117.6 33.064 118.74 16.83 118.2C11.9244 118.231 7.04453 117.488 2.37 116C1.56 115.71 0.79 115.32 0 115V114.44ZM196.1 99.18C195.67 99.44 195.43 99.57 195.21 99.73C192.11 101.87 189.39 101.47 187.12 98.48C185.565 96.403 184.648 93.9189 184.48 91.33C187 90.87 188.02 89.05 188.66 86.88C189.411 84.1781 189.469 81.3305 188.83 78.6C188.72 78.07 188.67 77.53 188.6 77.07C192.44 74.57 194.14 75.39 198.39 81.65C198.28 77.22 194.39 71.75 190.39 70.36C189.257 69.9558 188.047 69.8124 186.85 69.9405C185.654 70.0686 184.502 70.4649 183.48 71.1C180.952 72.6766 179.024 75.0523 178 77.85C176.703 80.9107 176.035 84.2009 176.035 87.525C176.035 90.8491 176.703 94.1393 178 97.2C178.977 99.8471 180.747 102.128 183.07 103.73C184.19 104.447 185.457 104.9 186.778 105.056C188.098 105.211 189.437 105.063 190.692 104.625C191.947 104.187 193.086 103.469 194.023 102.525C194.96 101.582 195.67 100.438 196.1 99.18V99.18Z" fill="#1D4087"/>
</svg>
