<svg width="172" height="68" viewBox="0 0 172 68" fill="none" xmlns="http://www.w3.org/2000/svg">
<path d="M16.4854 65.9881L14.8184 63.6652C13.9849 62.0805 13.1515 60.1701 12.0513 57.8039C10.2677 53.8746 7.91729 50.2709 3.71661 51.0742L5.13352 53.5055L7.68393 59.4971C9.38421 63.4481 11.9513 67.1603 16.4854 65.9881Z" fill="#1E4771"/>
<path d="M12.8015 63.4698C11.1888 62.359 9.90047 60.5897 9.13427 58.4334L7.18396 53.8529C8.68097 55.095 9.89089 56.8433 10.6845 58.911C11.418 60.5392 12.1181 62.0805 12.8015 63.4698Z" fill="#1E4771"/>
<path d="M23.9701 66.1837L22.3032 64.0128C21.4363 62.4714 20.5195 60.6262 19.3693 58.3033C18.7799 57.0763 18.0927 55.9339 17.319 54.8949C16.5223 53.7056 15.4981 52.812 14.3505 52.3049C13.2028 51.7978 11.9725 51.6952 10.7846 52.0076L12.2682 54.3739L14.9853 60.2354C15.5609 61.4748 16.2493 62.6192 17.0356 63.6437C17.9009 64.8557 19.0057 65.7339 20.229 66.1819C21.4522 66.63 22.7466 66.6306 23.9701 66.1837Z" fill="#1E4771"/>
<path d="M20.286 63.8605C19.5337 63.4493 18.8532 62.8437 18.2857 62.0804C17.5907 61.1556 16.9809 60.1284 16.4687 59.0195L14.4017 54.5692C15.0681 55.0204 15.6711 55.6148 16.1853 56.3276C16.8766 57.2833 17.4962 58.3228 18.0356 59.4319C18.7524 61.0384 19.4859 62.5363 20.286 63.8605Z" fill="#1E4771"/>
<path d="M0.716119 59.1716C1.16287 60.227 1.68767 61.2231 2.28305 62.1457C3.06686 63.4193 4.09991 64.3939 5.27337 64.967C6.44683 65.5401 7.71726 65.6904 8.95081 65.4021L7.41722 62.9924C6.65043 61.3642 5.8503 59.4321 4.83346 57.0007C4.30665 55.7183 3.68708 54.5043 2.98316 53.3752C2.40189 52.4601 1.70925 51.6754 0.932829 51.0524C0.361847 52.2663 0.0417971 53.6521 0.00382382 55.0748C-0.0341495 56.4976 0.211239 57.9089 0.716119 59.1716Z" fill="#1E4771"/>
<path d="M5.40021 62.6884C4.68916 62.1864 4.05604 61.5165 3.53322 60.7129C3.01824 59.9047 2.56597 59.0321 2.18301 58.1078C1.75712 57.0635 1.59386 55.8713 1.71627 54.6996C2.35548 55.7084 2.91402 56.7995 3.3832 57.9559C4.21667 59.9097 4.83345 61.4727 5.40021 62.6884Z" fill="#1E4771"/>
<path d="M17.8357 52.4634L19.386 54.7429L22.2698 60.4524C24.2034 64.2298 27.0705 67.6382 31.4879 65.9449L29.721 63.7739C28.8041 62.276 27.8206 60.4959 26.5871 58.2381C24.5535 54.5909 21.953 51.226 17.8357 52.4634Z" fill="#1E4771"/>
<path d="M27.6538 63.8824C25.959 62.9746 24.5413 61.3647 23.6198 59.3017L21.4028 54.9598C22.987 56.0101 24.3277 57.5913 25.2868 59.5405C26.1202 61.1905 26.9537 62.6233 27.6538 63.8824Z" fill="#1E4771"/>
<path d="M37.1555 63.2311C36.172 61.7766 35.1218 60.0833 33.8216 57.9125C33.1481 56.7543 32.3826 55.6919 31.5379 54.743C30.6756 53.6406 29.6029 52.8582 28.4307 52.4766C27.2585 52.0949 26.0293 52.1279 24.8701 52.5721L26.5371 54.743L29.6209 60.2787C30.2837 61.5271 31.0682 62.6582 31.9546 63.6436C32.9054 64.754 34.0737 65.4999 35.33 65.7988C36.5863 66.0976 37.8816 65.9378 39.0724 65.3369L37.1555 63.2311Z" fill="#1E4771"/>
<path d="M35.0718 63.4047C34.2944 63.0795 33.5747 62.5555 32.9548 61.8633C32.1875 61.0309 31.5042 60.0753 30.9211 59.0194L28.6207 54.8295C29.3011 55.2129 29.9311 55.733 30.4877 56.3708C31.231 57.2607 31.9065 58.2422 32.5047 59.3016C33.6216 60.9732 34.355 62.2758 35.0718 63.4047Z" fill="#1E4771"/>
<path d="M41.0227 57.1309C38.7056 53.7008 36.0219 50.6181 31.9045 52.3983L33.5715 54.5692L36.9053 59.8879C39.1224 63.4048 42.2562 66.4006 46.5402 64.2297L44.6066 62.3627C43.6231 60.7563 42.4062 59.1281 41.0227 57.1309Z" fill="#1E4771"/>
<path d="M42.5063 62.4713C40.7542 61.7622 39.2308 60.3199 38.1723 58.3683L35.6719 54.3087C37.2971 55.2028 38.7119 56.6408 39.7725 58.4769C40.8727 60.1267 41.7395 61.4727 42.5063 62.4713Z" fill="#1E4771"/>
<path d="M51.9579 60.4521C50.8411 59.1713 49.6409 57.6517 48.1739 55.6545C47.3969 54.6155 46.5489 53.6709 45.6402 52.8323C44.6981 51.8705 43.5777 51.2496 42.3923 51.0324C41.2069 50.8151 39.9985 51.0091 38.8891 51.5949L40.6561 53.5704L44.1566 58.672C44.918 59.7345 45.7743 60.6747 46.7071 61.4725C47.7585 62.4422 48.9955 63.0143 50.2811 63.1254C51.5667 63.2365 52.8509 62.8823 53.9916 62.102L51.9579 60.4521Z" fill="#1E4771"/>
<path d="M49.9075 60.9515C49.0882 60.7513 48.3103 60.3298 47.6237 59.7142C46.7951 58.9765 46.0393 58.1089 45.3734 57.1308L42.7396 53.2885C43.4405 53.5691 44.1 54.0021 44.6899 54.5692C45.5118 55.3183 46.2716 56.1768 46.957 57.1308C48.1572 58.759 49.0907 59.9529 49.9075 60.9515Z" fill="#1E4771"/>
<path d="M59.2589 58.1727C58.0921 57.0004 56.8085 55.5459 55.2249 53.8309C52.6078 50.7917 49.6407 48.2083 45.8068 50.4878L47.6404 52.333C48.6739 53.6572 49.8407 55.2203 51.3743 57.1524C53.8747 60.3002 57.3086 62.8401 61.3759 59.8009L59.2589 58.1727Z" fill="#1E4771"/>
<path d="M57.2421 58.8458C55.4239 58.4467 53.7619 57.2613 52.5246 55.4809C51.5411 54.2653 50.7244 53.1798 49.9909 52.2246L49.7075 51.8339C51.378 52.5089 52.8951 53.7093 54.1249 55.329C55.3917 56.8269 56.3919 57.9341 57.2421 58.8458Z" fill="#1E4771"/>
<path d="M54.5416 50.3359C55.6418 51.5516 56.8587 53.0278 58.4923 54.8079C59.3575 55.7593 60.3092 56.5686 61.326 57.2176C62.4823 57.9898 63.7808 58.3278 65.0761 58.1936C66.3715 58.0594 67.6126 57.4584 68.6605 56.4578L66.4602 55.1552C65.21 54.1132 63.8431 52.8107 62.1595 51.1391C61.292 50.236 60.3598 49.4436 59.3757 48.7729C58.3551 47.9815 57.1928 47.553 56.0052 47.5301C54.8175 47.5073 53.6461 47.8909 52.608 48.6426L54.5416 50.3359Z" fill="#1E4771"/>
<path d="M64.4599 56.0453C63.6195 56.0049 62.7954 55.731 62.0428 55.242C61.1456 54.6629 60.3106 53.9331 59.5591 53.0711C58.5256 51.9422 57.6422 50.9002 56.8587 50.0318L56.592 49.7062C57.2997 49.8825 57.9845 50.1895 58.6256 50.618C59.5238 51.2294 60.3727 51.9567 61.1594 52.7889C62.4596 54.1783 63.5264 55.1986 64.4599 56.0453Z" fill="#1E4771"/>
<path d="M61.276 47.8178C62.4428 48.9467 63.743 50.2926 65.4933 51.8991C68.3104 54.5259 72.0777 56.2409 75.7783 52.355C74.9949 52.0511 74.228 51.7037 73.4613 51.3563C72.1444 50.4663 70.6775 49.3374 68.9106 47.8395C65.9434 45.3864 62.7929 43.4977 59.2757 46.3199L61.276 47.8178Z" fill="#1E4771"/>
<path d="M71.1608 52.5067C69.4439 52.3686 67.802 51.5421 66.4601 50.1405C65.2265 48.9899 64.2264 47.9696 63.3262 47.1012C65.0378 47.4808 66.6583 48.3725 68.0603 49.7063C69.4605 50.8786 70.6107 51.8772 71.6109 52.5284L71.1608 52.5067Z" fill="#1E4771"/>
<path d="M72.3277 42.0864C71.2291 41.5093 70.0323 41.3238 68.8604 41.5489C67.6885 41.774 66.5838 42.4017 65.66 43.3673L67.7436 44.6481C68.9772 45.625 70.3608 46.819 72.1944 48.2084C73.1777 48.9594 74.2309 49.543 75.3282 49.9451C76.5996 50.4308 77.9507 50.4378 79.225 49.9652C80.4994 49.4927 81.645 48.5599 82.5294 47.2749L80.129 46.6236C78.7454 45.929 77.1952 44.9954 75.3115 43.758C74.3564 43.0882 73.358 42.5288 72.3277 42.0864Z" fill="#1E4771"/>
<path d="M77.4451 48.1219C76.8823 48.1252 76.3216 48.0303 75.7782 47.8396C74.8295 47.5042 73.9208 47.0001 73.0778 46.3416C71.7609 45.3647 70.694 44.4745 69.7439 43.6713C70.4423 43.7069 71.133 43.8751 71.7942 44.1706C72.7581 44.5572 73.6905 45.0663 74.578 45.6903C76.0616 46.6673 77.2617 47.4054 78.3452 48.0133C78.0346 48.0465 77.7224 48.0465 77.4117 48.0133L77.4451 48.1219Z" fill="#1E4771"/>
<path d="M71.9611 39.7637L74.1281 40.784C75.4116 41.6089 76.8785 42.6292 78.8288 43.7364C80.4361 44.7674 82.2266 45.2173 84.013 45.0389C85.0213 44.8774 85.9906 44.4327 86.854 43.7355C87.7174 43.0384 88.4543 42.1054 89.0138 41.0011C88.1803 41.0011 87.3468 41.0011 86.53 40.8491C84.8037 40.3194 83.1055 39.645 81.4459 38.8302C78.1287 37.2455 74.8449 36.0732 71.9611 39.7637Z" fill="#1E4771"/>
<path d="M83.1129 42.8681C81.836 42.8122 80.5818 42.4131 79.429 41.6958C78.0454 40.8926 76.9118 40.1546 75.895 39.525H76.4284C77.9576 39.6616 79.4602 40.116 80.8792 40.8709C82.3961 41.5873 83.6963 42.1517 84.8965 42.5641C84.5268 42.7162 84.1474 42.8251 83.7629 42.8898H83.1129V42.8681Z" fill="#1E4771"/>
<path d="M95.2982 29.9295C96.296 29.0936 97.1216 27.9522 97.7028 26.605C98.2839 25.2578 98.6029 23.7458 98.632 22.201C97.9253 22.944 97.1663 23.5981 96.365 24.1549C94.668 24.9585 92.8852 25.4126 91.0808 25.5009C89.4416 25.5347 87.8098 25.7967 86.2133 26.2824C85.4401 26.5572 84.7179 27.0338 84.0903 27.6831C83.4628 28.3324 82.9431 29.141 82.5627 30.0598C83.2962 30.0598 84.0464 30.2552 84.7965 30.3203C86.4911 30.7861 88.2055 31.1196 89.9306 31.3189C91.7877 31.6119 93.6682 31.1252 95.2982 29.9295Z" fill="#1E4771"/>
<path d="M91.0307 29.2132H90.1806C88.9387 29.0754 87.7034 28.8508 86.48 28.5402L86.7967 28.4099C88.154 28.0064 89.5389 27.781 90.9307 27.7369H91.2975C92.7787 27.6407 94.2481 27.3424 95.6815 26.8468C95.3432 27.3608 94.9435 27.8006 94.498 28.1494C93.4469 28.9435 92.2451 29.3348 91.0307 29.2783V29.2132Z" fill="#1E4771"/>
<path d="M96.8484 11.5419C96.1582 13.8381 94.8884 15.7599 93.2478 16.9909C92.3644 17.6801 91.4517 18.3034 90.514 18.8579C89.5987 19.2327 88.7699 19.8998 88.1031 20.7984C87.4364 21.6971 86.9529 22.7987 86.6967 24.0029C87.4135 24.0029 88.1303 23.851 88.8471 23.699C90.5656 23.6912 92.2775 23.4216 93.9479 22.8958C95.1194 22.5046 96.2042 21.761 97.1151 20.7249C98.2969 19.3792 99.0467 17.5038 99.2154 15.4713C99.3284 13.9942 99.1931 12.5028 98.8188 11.1007C98.4446 9.6986 97.8405 8.41942 97.0484 7.35205C97.1561 8.75357 97.0885 10.1686 96.8484 11.5419Z" fill="#1E4771"/>
<path d="M90.2974 21.5498C90.6111 21.3183 90.9338 21.1082 91.2642 20.9202C92.0976 20.3992 93.1145 19.748 94.148 18.9447C95.5598 17.8822 96.7547 16.393 97.6318 14.6029C97.6318 14.8851 97.6318 15.1456 97.6318 15.3844C97.5191 16.8977 96.9641 18.2967 96.0816 19.2921C95.3692 20.1017 94.5171 20.6752 93.5979 20.9637C92.5138 21.2904 91.409 21.4866 90.2974 21.5498Z" fill="#1E4771"/>
<path d="M83.6295 32.1874C82.5106 31.9981 81.3732 32.1815 80.3237 32.7207C79.2741 33.2598 78.3468 34.137 77.6285 35.27C78.3453 35.5306 79.0954 35.7694 79.8288 35.9647C81.1791 36.5943 82.7293 37.3541 84.8296 38.1356C85.9129 38.5424 87.0362 38.7399 88.1635 38.7218C89.5656 38.7126 90.9337 38.158 92.0921 37.1291C93.2504 36.1002 94.1462 34.6439 94.6646 32.9472C93.82 33.1788 92.9865 33.3741 92.1641 33.5333C90.3837 33.4789 88.6102 33.2247 86.8633 32.7735C85.7976 32.4769 84.7168 32.2811 83.6295 32.1874Z" fill="#1E4771"/>
<path d="M87.8803 36.5291C86.9838 36.5153 86.0926 36.3474 85.2299 36.0298C83.7963 35.5088 82.6295 34.9661 81.5793 34.4885C82.03 34.3794 82.4878 34.3285 82.9462 34.3365H83.5296C84.5481 34.4294 85.5613 34.6033 86.5635 34.8575C87.9628 35.2087 89.3764 35.4552 90.7974 35.5956C89.9851 36.1987 89.0654 36.5131 88.1304 36.5073L87.8803 36.5291Z" fill="#1E4771"/>
<path d="M90.4472 9.95717C90.469 11.8003 90.0622 13.609 89.2804 15.1456C88.6636 16.2311 88.4136 16.4264 88.7803 18.098C89.4005 17.8396 89.9982 17.4976 90.5639 17.0777C92.1301 16.2525 93.4589 14.8104 94.3646 12.953C94.9225 11.7509 95.2105 10.3692 95.1958 8.96473C95.181 7.56025 94.8642 6.18929 94.2812 5.00753C93.5407 3.49264 92.5026 2.26312 91.2746 1.4463C90.0466 0.629477 88.6732 0.255051 87.2968 0.361813C87.9369 1.22147 88.5327 2.13523 89.0803 3.09715C89.976 5.1955 90.4464 7.55641 90.4472 9.95717Z" fill="#1E4771"/>
<path d="M91.6643 13.7129C91.9595 12.5053 92.1112 11.2461 92.1143 9.97888C92.125 7.89308 91.8132 5.82584 91.1976 3.90027C91.8713 4.45179 92.441 5.19378 92.8645 6.0712C93.2862 6.91234 93.5204 7.88939 93.541 8.89361C93.5616 9.89783 93.3678 10.8898 92.9811 11.759C92.6225 12.4952 92.1782 13.1543 91.6643 13.7129Z" fill="#1E4771"/>
<path d="M83.9296 7.93816L85.6966 11.3899C86.28 12.5188 86.8134 13.5608 87.2302 14.1904C87.6469 14.82 87.9469 15.189 88.4304 15.1456C88.7525 14.4913 88.9523 13.7478 89.0138 12.9747C89.2698 10.8106 89.0681 8.59652 88.4304 6.57049C87.996 5.11296 87.3251 3.79483 86.4634 2.70627C85.3711 1.30642 83.9657 0.394452 82.4498 0.101832C80.9339 -0.190789 79.3859 0.151057 78.0287 1.07809C78.8569 1.53304 79.6542 2.07768 80.4124 2.70627C81.7591 4.2377 82.942 5.99733 83.9296 7.93816Z" fill="#1E4771"/>
<path d="M85.2965 6.72257C84.481 5.16514 83.5546 3.71142 82.5294 2.38074C83.5758 2.67529 84.5359 3.35318 85.2965 4.33457C85.9854 5.17937 86.5158 6.2193 86.8467 7.37385C87.2068 8.53537 87.4099 9.76929 87.4468 11.021L85.2965 6.72257Z" fill="#1E4771"/>
<path d="M85.1797 13.7129C84.824 12.9493 84.4227 12.2235 83.9796 11.542C83.0865 9.62498 82.0418 7.83509 80.8624 6.20159C80.2298 5.27281 79.4621 4.51645 78.6038 3.97617C77.7454 3.43589 76.8134 3.12239 75.8616 3.0538C74.6261 3.03545 73.4102 3.45573 72.3444 4.26951C70.9486 5.34005 69.8287 6.92691 69.1271 8.82837C70.0599 8.31021 71.0405 7.95263 72.0443 7.76464C73.9146 7.84523 75.7316 8.59643 77.2952 9.93552C80.1956 12.0847 81.9626 14.9503 85.1797 13.7129Z" fill="#1E4771"/>
<path d="M81.8127 11.0861C81.2034 10.6207 80.6136 10.1134 80.0457 9.56639C79.429 9.00194 78.7956 8.4158 78.0788 7.85135C76.7318 6.75236 75.23 6.01432 73.6614 5.68041C74.2882 5.3032 74.9712 5.11048 75.6617 5.11596C76.4247 5.15021 77.174 5.38969 77.8625 5.81934C78.551 6.24899 79.1638 6.85953 79.6623 7.61255C80.4556 8.68637 81.1752 9.84864 81.8127 11.0861Z" fill="#1E4771"/>
<path d="M66.9602 15.4713C66.2356 17.8711 66.2356 20.5393 66.9602 22.9392C67.3564 21.828 67.8307 20.767 68.3771 19.7697C69.6232 17.9519 71.2249 16.6089 73.0112 15.8838C73.9752 15.5138 74.9734 15.3167 75.9783 15.2976C76.9118 15.2976 77.6452 15.4713 78.2453 15.4279C78.9329 15.3588 79.5754 14.9559 80.0457 14.299C79.5262 13.7219 78.9683 13.2061 78.3787 12.7576C77.0489 11.3818 75.4808 10.4502 73.8113 10.044C72.5577 9.78019 71.2721 10.0226 70.1274 10.7387C68.6554 11.7466 67.5258 13.4346 66.9602 15.4713Z" fill="#1E4771"/>
<path d="M68.3438 16.8607C68.3438 16.6653 68.4438 16.47 68.5105 16.2746C68.9455 14.7655 69.7948 13.5202 70.8942 12.7794C71.5017 12.3937 72.1687 12.1933 72.8445 12.1933C73.0883 12.1602 73.3341 12.1602 73.578 12.1933C74.3431 12.3593 75.0849 12.674 75.7783 13.1268C74.6825 13.1667 73.5953 13.393 72.5445 13.7998C70.9961 14.4288 69.5654 15.4713 68.3438 16.8607Z" fill="#1E4771"/>
<path d="M77.462 16.7955C76.8514 16.6341 76.2223 16.6341 75.6117 16.7955C73.9423 17.0968 72.3744 18.0161 71.0943 19.444C70.3233 20.2348 69.6813 21.2183 69.2061 22.3367C68.7309 23.4551 68.4321 24.6859 68.3272 25.9567C68.2158 27.4631 68.3747 28.9826 68.7912 30.3954C69.2078 31.8081 69.8707 33.0756 70.7276 34.0977C70.8276 32.9688 70.961 31.9267 71.1277 30.7762C71.7313 28.5629 72.5732 26.4724 73.6281 24.5674C74.6282 22.7438 75.6951 21.0505 76.4619 19.7696C77.2287 18.4888 77.662 17.8592 77.462 16.7955Z" fill="#1E4771"/>
<path d="M70.0607 28.3665C69.9495 27.6523 69.9215 26.9205 69.9773 26.1956C70.1641 24.2346 70.9367 22.4485 72.1277 21.2242C72.8446 20.458 73.6563 19.8561 74.5281 19.4441C73.828 20.573 73.0445 21.8972 72.261 23.3083C71.3876 24.8844 70.6497 26.5806 70.0607 28.3665Z" fill="#1E4771"/>
<path d="M76.1117 23.2647C75.0228 24.9772 74.1198 26.8764 73.4279 28.9091C72.9377 30.2765 72.6385 31.7468 72.5445 33.2509C72.5069 34.0655 72.5517 34.883 72.6778 35.6824C73.9344 34.9093 75.3483 34.681 76.7118 35.0311C76.8618 34.141 77.0285 33.2292 77.2619 32.2306C77.5786 30.8412 77.862 29.4518 78.062 28.1276C78.3671 26.9528 78.4626 25.7029 78.3413 24.4729C78.22 23.2428 77.885 22.065 77.3619 21.0287C76.8839 21.7125 76.4647 22.4623 76.1117 23.2647Z" fill="#1E4771"/>
<path d="M74.2614 32.9036C74.3704 31.8445 74.6008 30.8126 74.9449 29.8426C75.4073 28.4693 75.9653 27.154 76.6118 25.9132C76.5649 26.5401 76.4926 27.1633 76.3951 27.7802C76.2284 28.8874 75.9784 30.1248 75.6283 31.7096C75.545 32.0786 75.4616 32.426 75.3949 32.795C75.0157 32.8006 74.6372 32.8368 74.2614 32.9036Z" fill="#1E4771"/>
<path d="M89.6138 41.0663C89.7138 42.9116 89.8139 44.9956 90.0806 47.6875C90.4806 52.1813 92.1309 57.044 96.8317 57.8038L95.8315 54.9166C95.4315 53.0496 95.0648 50.9004 94.6814 48.1868C94.4491 45.1708 93.4992 42.3246 91.9642 40.046C91.21 40.4912 90.4223 40.8332 89.6138 41.0663Z" fill="#1E4771"/>
<path d="M93.8978 53.8744C92.5834 52.1258 91.8116 49.8064 91.7307 47.3618C91.564 45.5382 91.4474 43.9969 91.3807 42.6075H91.4807C92.3053 44.4326 92.8383 46.4558 93.0476 48.5558C93.331 50.6181 93.6311 52.3548 93.8978 53.8744Z" fill="#1E4771"/>
<path d="M95.0481 42.108C95.2648 43.0632 95.4815 44.0184 95.7315 44.9519C96.0149 46.7972 96.2983 48.9465 96.7817 51.6384C97.0204 53.0847 97.4131 54.4803 97.9485 55.7849C98.5185 57.3037 99.4022 58.5857 100.501 59.4868C101.599 60.388 102.868 60.8727 104.166 60.8866L102.983 58.1512C102.466 56.3276 101.966 54.2218 101.399 51.6384C101.114 50.2441 100.735 48.8856 100.266 47.5788C99.8337 46.1569 99.1259 44.9053 98.2114 43.9463C97.2969 42.9874 96.2069 42.354 95.0481 42.108Z" fill="#1E4771"/>
<path d="M100.999 57.3046C100.335 56.6182 99.795 55.7514 99.4155 54.7646C98.9512 53.6222 98.6091 52.4024 98.3986 51.1392C98.0653 49.2288 97.8153 47.6006 97.6152 46.1678C98.0675 46.8206 98.4489 47.551 98.7487 48.3387C99.1893 49.522 99.541 50.7579 99.7989 52.0293C100.299 54.2219 100.632 55.8935 100.999 57.3046Z" fill="#1E4771"/>
<path d="M89.6805 53.8312C89.3971 52.8326 89.1304 51.8122 88.8803 50.8136C88.625 48.844 88.447 46.8586 88.3469 44.8654C87.2529 46.2818 85.8705 47.2611 84.363 47.6875C84.7459 49.2377 85.4413 50.6256 86.3767 51.7062C87.312 52.7869 88.453 53.5208 89.6805 53.8312Z" fill="#1E4771"/>
<path d="M102.216 48.2301C102.633 50.032 103.066 52.1161 103.716 54.7429C104.766 59.0848 106.933 63.4267 111.584 63.2096L110.301 60.6045C109.684 58.846 109.067 56.7836 108.334 54.2002C107.117 49.8583 105.45 45.8421 101.316 45.5165L102.216 48.2301Z" fill="#1E4771"/>
<path d="M108.25 59.953C106.781 58.5057 105.739 56.4435 105.3 54.1132C104.833 52.2462 104.483 50.6615 104.183 49.2504C105.373 50.8664 106.258 52.8212 106.767 54.9599C107.333 57.1308 107.817 58.607 108.25 59.953Z" fill="#1E4771"/>
<path d="M117.652 62.3846C116.952 60.6913 116.235 58.694 115.385 56.1758C114.923 54.8432 114.365 53.5711 113.718 52.3766C113.113 51.038 112.247 49.9314 111.207 49.1689C110.168 48.4064 108.993 48.0152 107.8 48.0348L108.884 50.705C109.4 52.4635 109.967 54.5041 110.767 57.0658C111.192 58.4427 111.752 59.7417 112.434 60.9301C113.16 62.3202 114.167 63.4213 115.344 64.111C116.521 64.8008 117.822 65.0524 119.102 64.8378L117.652 62.3846Z" fill="#1E4771"/>
<path d="M115.585 61.9066C114.873 61.3573 114.26 60.6174 113.784 59.7357C113.205 58.6851 112.724 57.5482 112.351 56.3491C111.834 54.6558 111.401 53.1796 111.034 51.877L110.934 51.5514C111.5 52.1382 111.995 52.8336 112.401 53.6137C112.97 54.6996 113.456 55.8557 113.851 57.0655C114.535 59.0193 115.085 60.5824 115.585 61.9066Z" fill="#1E4771"/>
<path d="M126.586 66.0315L125.053 63.6435C124.286 61.9936 123.503 60.0615 122.519 57.5867C120.852 53.5488 118.785 49.7932 114.584 50.1839L115.818 52.7456L118.018 58.9543C119.502 63.0139 121.969 66.9215 126.586 66.0315Z" fill="#1E4771"/>
<path d="M122.986 63.318C121.412 62.0903 120.193 60.2208 119.519 57.9993L117.852 53.2885C119.249 54.6679 120.351 56.4918 121.052 58.5854C121.819 60.5392 122.436 62.0372 122.986 63.318Z" fill="#1E4771"/>
<path d="M134.088 66.6394L132.421 64.3166C131.587 62.7318 130.754 60.8431 129.654 58.4551C129.117 57.2165 128.492 56.0463 127.787 54.96C127.049 53.7304 126.074 52.7773 124.961 52.1977C123.848 51.6181 122.638 51.4327 121.452 51.6602L122.802 54.135L125.303 60.1267C125.842 61.3864 126.484 62.5657 127.22 63.6436C128.045 64.9129 129.121 65.8633 130.332 66.3915C131.543 66.9196 132.842 67.0054 134.088 66.6394Z" fill="#1E4771"/>
<path d="M130.404 64.1212C129.662 63.6694 128.999 63.027 128.453 62.2326C127.798 61.271 127.238 60.2062 126.787 59.0631L124.919 54.5043C125.549 55.0044 126.112 55.635 126.586 56.3712C127.254 57.3518 127.841 58.4214 128.337 59.5624C128.97 61.082 129.687 62.6667 130.404 64.1212Z" fill="#1E4771"/>
<path d="M141.589 66.7915L139.922 64.6206C139.039 63.0793 138.105 61.234 136.955 58.9328C135.038 55.1121 132.587 51.6386 128.403 52.6372L129.87 55.0035L132.571 60.8649C134.388 64.6857 137.155 68.246 141.589 66.7915Z" fill="#1E4771"/>
<path d="M137.838 64.5336C136.185 63.5071 134.834 61.8078 133.988 59.6925L131.971 55.2206C133.496 56.3866 134.751 58.0664 135.605 60.0833C136.438 61.82 137.155 63.2528 137.838 64.5336Z" fill="#1E4771"/>
<path d="M147.323 64.4251C146.406 62.9055 145.423 61.147 144.189 58.8893C143.553 57.6978 142.828 56.5924 142.022 55.5896C141.183 54.4362 140.122 53.598 138.949 53.1625C137.776 52.7271 136.534 52.7106 135.355 53.1147L136.905 55.2856L139.805 60.9734C140.433 62.1918 141.172 63.307 142.006 64.2948C142.909 65.4543 144.04 66.2695 145.274 66.6521C146.508 67.0348 147.799 66.9704 149.007 66.4657L147.323 64.4251Z" fill="#1E4771"/>
<path d="M145.306 64.4469C144.544 64.0826 143.847 63.5214 143.256 62.797C142.521 61.9198 141.871 60.9282 141.322 59.8446L139.105 55.5028C139.79 55.9017 140.416 56.4526 140.955 57.131C141.676 58.0406 142.329 59.0364 142.906 60.1051C143.756 61.8418 144.539 63.2312 145.306 64.4469Z" fill="#1E4771"/>
<path d="M154.724 63.9039C153.757 62.4277 152.724 60.7127 151.39 58.5201C149.257 54.9164 146.573 51.7035 142.439 53.2014L144.106 55.3723L147.19 60.9081C149.273 64.5552 152.191 67.7898 156.541 65.9228L154.724 63.9039Z" fill="#1E4771"/>
<path d="M152.641 64.0343C150.948 63.1951 149.506 61.6739 148.523 59.6924L146.156 55.3505C147.743 56.3219 149.105 57.8192 150.107 59.6924C151.174 61.6462 151.974 62.9488 152.641 64.0343Z" fill="#1E4771"/>
<path d="M162.076 63.0141C161.092 61.603 160.009 59.9313 158.658 57.8038C157.955 56.6705 157.161 55.6372 156.291 54.7211C155.398 53.6879 154.312 52.9778 153.142 52.6616C151.972 52.3454 150.759 52.4343 149.624 52.9192L151.29 55.0901L154.541 60.4741C155.241 61.6249 156.041 62.6666 156.925 63.5785C157.888 64.6384 159.056 65.336 160.301 65.5961C161.546 65.8563 162.823 65.6691 163.992 65.0547L162.076 63.0141Z" fill="#1E4771"/>
<path d="M162.076 63.0141C161.092 61.603 160.009 59.9313 158.658 57.8038C157.955 56.6705 157.161 55.6372 156.291 54.7211C155.398 53.6879 154.312 52.9778 153.142 52.6616C151.972 52.3454 150.759 52.4343 149.624 52.9192L151.29 55.0902L154.541 60.4741C155.241 61.6249 156.041 62.6666 156.925 63.5785C157.888 64.6385 159.056 65.336 160.301 65.5962C161.546 65.8563 148.454 53.5335 149.624 52.9192L162.076 63.0141Z" fill="#1E4771"/>
<path d="M159.992 63.2528C159.226 62.9335 158.509 62.4412 157.875 61.7983C157.098 60.9844 156.393 60.0596 155.774 59.0412L153.307 54.9598C154.014 55.3117 154.673 55.8103 155.258 56.4361C156.036 57.2956 156.745 58.2557 157.375 59.3017C158.308 60.6694 159.192 62.0371 159.992 63.2528Z" fill="#1E4771"/>
<path d="M169.41 61.8419C168.377 60.4742 167.26 58.846 165.859 56.7619C163.542 53.3536 160.675 50.4011 156.608 52.2898L158.358 54.3088L161.692 59.5407C163.959 62.9925 167.06 66.0535 171.26 63.7306L169.41 61.8419Z" fill="#1E4771"/>
<path d="M167.343 62.1674C165.606 61.4542 164.088 60.0401 163.009 58.1294L160.409 54.1132C162.073 54.95 163.526 56.3701 164.609 58.2162C165.709 59.8227 166.576 61.0819 167.343 62.1674Z" fill="#1E4771"/>
<path d="M167.776 50.9003C166.407 50.4853 164.972 50.6449 163.676 51.3562L165.476 53.31L168.993 58.3899C169.432 59.0197 169.906 59.6074 170.41 60.1483C171.31 57.9774 171.31 54.352 167.776 50.9003Z" fill="#1E4771"/>
<path d="M79.679 26.152L79.429 25.8047C79.0887 27.3493 78.9313 28.9524 78.9622 30.5588C79.9579 30.4855 80.9121 30.0156 81.696 29.2129C81.2048 28.0118 80.5161 26.9666 79.679 26.152V26.152Z" fill="#1E4771"/>
</svg>
