<svg width="20" height="20" viewBox="0 0 20 20" fill="none" xmlns="http://www.w3.org/2000/svg">
<g clip-path="url(#clip0)">
<path d="M19.2915 5.88005C19.2462 4.81738 19.0803 4.0868 18.8426 3.45374C18.5974 2.78176 18.2202 2.18014 17.726 1.68002C17.2431 1.1721 16.6584 0.777435 16.0171 0.527447C15.4023 0.281274 14.7006 0.109427 13.6746 0.0625732C12.6409 0.0117516 12.3127 0 9.69099 0C7.06925 0 6.74109 0.0117516 5.71123 0.0586052C4.68519 0.105459 3.97981 0.277459 3.36873 0.523479C2.71977 0.777435 2.1389 1.16814 1.65602 1.68002C1.16562 2.18014 0.784709 2.78573 0.543194 3.44992C0.305511 4.0868 0.139589 4.81341 0.0943511 5.87609C0.0452819 6.9467 0.0339355 7.28658 0.0339355 10.002C0.0339355 12.7173 0.0452819 13.0572 0.0905198 14.1239C0.135758 15.1865 0.301827 15.9171 0.53951 16.5502C0.784709 17.2221 1.16562 17.8238 1.65602 18.3239C2.1389 18.8318 2.72361 19.2265 3.36489 19.4765C3.97981 19.7226 4.68136 19.8945 5.70754 19.9413C6.73726 19.9883 7.06557 19.9999 9.68731 19.9999C12.309 19.9999 12.6372 19.9883 13.6671 19.9413C14.6931 19.8945 15.3985 19.7226 16.0096 19.4765C17.3073 18.9568 18.3334 17.8941 18.8351 16.5502C19.0726 15.9133 19.2387 15.1865 19.2839 14.1239C19.3292 13.0572 19.3405 12.7173 19.3405 10.002C19.3405 7.28658 19.3367 6.9467 19.2915 5.88005ZM17.5525 14.0457C17.511 15.0225 17.3526 15.5499 17.2205 15.9015C16.8961 16.7728 16.2284 17.4643 15.3871 17.8004C15.0476 17.9372 14.5347 18.1012 13.5953 18.1441C12.5768 18.1911 12.2713 18.2027 9.69482 18.2027C7.11832 18.2027 6.80902 18.1911 5.79419 18.1441C4.85112 18.1012 4.34186 17.9372 4.00235 17.8004C3.58372 17.6402 3.20266 17.3862 2.89336 17.0541C2.57271 16.7298 2.32752 16.3391 2.17279 15.9055C2.04076 15.5539 1.88236 15.0225 1.84095 14.0497C1.79556 12.9948 1.78436 12.6783 1.78436 10.0097C1.78436 7.34122 1.79556 7.02087 1.84095 5.96995C1.88236 4.99319 2.04076 4.46575 2.17279 4.11412C2.32752 3.68038 2.57271 3.28586 2.89719 2.96536C3.21017 2.63327 3.5874 2.37931 4.00618 2.21921C4.34569 2.08247 4.85878 1.9184 5.79802 1.87537C6.81654 1.82851 7.12215 1.81676 9.6985 1.81676C12.2788 1.81676 12.5843 1.82851 13.5991 1.87537C14.5422 1.9184 15.0515 2.08247 15.391 2.21921C15.8096 2.37931 16.1907 2.63327 16.5 2.96536C16.8206 3.28967 17.0658 3.68038 17.2205 4.11412C17.3526 4.46575 17.511 4.99701 17.5525 5.96995C17.5978 7.02484 17.6091 7.34122 17.6091 10.0097C17.6091 12.6783 17.5978 12.9908 17.5525 14.0457Z" fill="#051E3A"/>
<path d="M9.69102 4.86426C6.95243 4.86426 4.73047 7.16543 4.73047 10.002C4.73047 12.8385 6.95243 15.1397 9.69102 15.1397C12.4298 15.1397 14.6516 12.8385 14.6516 10.002C14.6516 7.16543 12.4298 4.86426 9.69102 4.86426ZM9.69102 13.3347C7.91437 13.3347 6.47324 11.8422 6.47324 10.002C6.47324 8.16171 7.91437 6.66927 9.69102 6.66927C11.4678 6.66927 12.9088 8.16171 12.9088 10.002C12.9088 11.8422 11.4678 13.3347 9.69102 13.3347Z" fill="#051E3A"/>
<path d="M16.006 4.66134C16.006 5.3237 15.4874 5.86076 14.8478 5.86076C14.2082 5.86076 13.6897 5.3237 13.6897 4.66134C13.6897 3.99882 14.2082 3.46191 14.8478 3.46191C15.4874 3.46191 16.006 3.99882 16.006 4.66134Z" fill="#051E3A"/>
</g>
<defs>
<clipPath id="clip0">
<rect width="19.3103" height="20" fill="white"/>
</clipPath>
</defs>
</svg>
