<svg id="Layer_5" enable-background="new 0 0 64 64" height="512" viewBox="0 0 64 64" width="512" xmlns="http://www.w3.org/2000/svg"><g><path d="m25.002 38.984 2 .031c.01-.622.062-1.251.156-1.868l-1.978-.299c-.107.706-.167 1.424-.178 2.136z"/><path d="m32.237 25.985c-3.169 2.037-5.505 5.135-6.576 8.721l1.916.572c.935-3.129 2.974-5.831 5.742-7.611l1.275-.819-1.081-1.682z"/><path d="m58.998 38.981-2 .037.002.223c0 .527-.03 1.061-.091 1.585l1.987.229c.069-.6.104-1.21.104-1.813z"/><path d="m47.677 52.267.646 1.893c4.997-1.706 8.79-5.768 10.147-10.863l-1.933-.516c-1.183 4.449-4.496 7.995-8.86 9.486z"/><path d="m53.926 22.621-2.847-1.83c1.121-.435 1.921-1.518 1.921-2.791 0-1.526-1.149-2.775-2.624-2.962l4.624-4.624v-.414c0-2.213-1.656-4.09-3.853-4.364l-1.841-.23.96-3.119-5.667-1.417-2.551 3.4-1.588-2.382-6.768 1.354.733 2.198-1.573.196c-2.196.274-3.852 2.151-3.852 4.364v.414l4.624 4.624c-1.475.187-2.624 1.436-2.624 2.962 0 1.273.8 2.356 1.921 2.791l-2.847 1.83c-5.682 3.651-9.074 9.865-9.074 16.62 0 .587.035 1.174.086 1.759h-8.086v-8h-7c-2.757 0-5 2.243-5 5v20c0 2.757 2.243 5 5 5h35v-4h2.241c10.895 0 19.759-8.863 19.759-19.759 0-6.755-3.392-12.969-9.074-16.62zm-3.027-15.001c1.068.134 1.903.963 2.07 1.996l-5.383 5.384h-1.232l2.355-7.654zm-11.359-3.508 2.413 3.618 3.45-4.6 2.332.583-3.473 11.287h-4.541l-3.414-10.241zm-6.439 3.508 1.969-.246 2.542 7.626h-1.198l-5.383-5.384c.167-1.033 1.002-1.862 2.07-1.996zm.899 9.38h16c.551 0 1 .448 1 1s-.449 1-1 1h-16c-.551 0-1-.448-1-1s.449-1 1-1zm-28 18h5v6h-5c-1.654 0-3-1.346-3-3s1.346-3 3-3zm0 26c-1.654 0-3-1.346-3-3v-16.002c.836.629 1.875 1.002 3 1.002h4.695c-2.834 1.992-4.695 5.28-4.695 9s1.861 7.008 4.695 9zm11-18c4.962 0 9 4.037 9 9s-4.038 9-9 9-9-4.037-9-9 4.038-9 9-9zm22 18h-15.695c2.834-1.992 4.695-5.28 4.695-9s-1.861-7.008-4.695-9h15.695zm2-18.424c.614.27 1.288.424 2 .424 1.654 0 3 1.346 3 3s-1.346 3-3 3h-2zm2.241 14.424h-2.241v-6h2c2.757 0 5-2.243 5-5s-2.243-5-5-5c-1.654 0-3-1.346-3-3s1.346-3 3-3h3v3h2v-5h-4v-2h-2v2.101c-2.279.465-4 2.484-4 4.899 0 1.13.391 2.162 1.026 3h-15.929c-.057-.584-.097-1.171-.097-1.759 0-6.071 3.049-11.655 8.155-14.938l5.138-3.303h11.414l5.138 3.303c5.106 3.283 8.155 8.867 8.155 14.938 0 9.792-7.967 17.759-17.759 17.759z"/><path d="m16 59h2v-2c1.654 0 3-1.346 3-3s-1.346-3-3-3h-2c-.551 0-1-.448-1-1s.449-1 1-1h3v1h2v-3h-3v-2h-2v2c-1.654 0-3 1.346-3 3s1.346 3 3 3h2c.551 0 1 .448 1 1s-.449 1-1 1h-3v-1h-2v3h3z"/><path d="m35 50h2v-5h-5v2h3z"/><path d="m37 54h-2v3h-3v2h5z"/></g></svg>