<svg width="100" height="100" viewBox="0 0 100 100" fill="none" xmlns="http://www.w3.org/2000/svg">
<circle cx="50.5" cy="50.5" r="36.6" fill="white" stroke="#1E4771" stroke-width="1.8"/>
<circle cx="13.65" cy="9.64995" r="4.9" transform="rotate(137.815 13.65 9.64995)" stroke="white" stroke-opacity="0.5" stroke-width="1.8" stroke-dasharray="2 2"/>
<circle r="2.9" transform="matrix(-0.740977 0.671531 0.671531 0.740977 71.825 86.825)" stroke="white" stroke-opacity="0.5" stroke-width="1.8" stroke-dasharray="2 2"/>
<circle cx="80.475" cy="10.4749" r="6.9" transform="rotate(137.815 80.475 10.4749)" stroke="white" stroke-opacity="0.5" stroke-width="1.8" stroke-dasharray="2 2"/>
<g clip-path="url(#clip0)">
<path d="M45.7694 57.0083C44.4528 57.0083 43.2517 57.6778 42.5561 58.7988L44.0498 59.7256C44.4224 59.1248 45.0653 58.7661 45.7694 58.7661C46.4732 58.7661 47.1159 59.1248 47.4887 59.7256L48.9824 58.7988C48.2868 57.6778 47.0857 57.0083 45.7694 57.0083Z" fill="#1E4771"/>
<path d="M45.7694 53.9648C43.3297 53.9648 41.1036 55.2058 39.8143 57.2843L41.308 58.2108C42.2746 56.6528 43.9422 55.7227 45.7694 55.7227C47.5961 55.7227 49.2639 56.6528 50.2303 58.2108L51.724 57.2843C50.4347 55.2058 48.2086 53.9648 45.7694 53.9648Z" fill="#1E4771"/>
<path d="M46.811 61.1097C46.811 61.6852 46.3445 62.1516 45.7691 62.1516C45.1937 62.1516 44.7272 61.6852 44.7272 61.1097C44.7272 60.5343 45.1937 60.0679 45.7691 60.0679C46.3445 60.0679 46.811 60.5343 46.811 61.1097Z" fill="#1E4771"/>
<path d="M39.0768 52.6759H52.8732V46.7188H39.0768V52.6759ZM40.8347 48.4766H51.1153V50.918H40.8347V48.4766Z" fill="#1E4771"/>
<path d="M65 38.6932H63.2422V49.1218H60.3596V46.8945H56.6561V43.3439H54.1611V41.1251L52.5843 40.8839C52.5172 40.7019 52.4429 40.5227 52.3614 40.3465L53.3057 39.0606L50.1005 35.8551L48.8146 36.7997C48.6384 36.7182 48.4589 36.6438 48.2772 36.5768L48.0357 35H43.5027L43.2613 36.5768C43.0795 36.6438 42.9001 36.7182 42.7238 36.7997L41.438 35.8551L38.2325 39.0606L39.1771 40.3465C39.0956 40.5227 39.0212 40.7019 38.9542 40.8839L37.3774 41.1251V43.3439H35V65H56.6561V53.9855H60.3596V50.8796H65V38.6932ZM39.1352 42.6346L40.3165 42.4538L40.4691 41.9072C40.587 41.4856 40.7561 41.0777 40.972 40.6948L41.2508 40.2004L40.5428 39.2364L41.6138 38.1654L42.5776 38.8734L43.072 38.5948C43.4549 38.379 43.863 38.2098 44.2846 38.092L44.8309 37.9391L45.0117 36.7578H46.5265L46.7073 37.9391L47.2536 38.0917C47.6752 38.2096 48.0833 38.3788 48.4663 38.5946L48.9606 38.8734L49.9245 38.1654L50.9954 39.2364L50.2875 40.2002L50.5663 40.6946C50.7821 41.0777 50.9512 41.4856 51.0691 41.9072L51.2218 42.4535L52.403 42.6344V43.3439H48.9819C48.9561 41.5936 47.5253 40.1775 45.7691 40.1775C44.0129 40.1775 42.5819 41.5936 42.5563 43.3439H39.1352V42.6346ZM47.2246 43.3439H44.3137C44.3391 42.5629 44.9822 41.9356 45.7691 41.9356C46.5562 41.9356 47.1992 42.5629 47.2246 43.3439ZM54.8983 63.2422H36.7578V45.1017H54.8983V63.2422ZM58.6018 52.2277H56.6561V48.6523H58.6018V52.2277Z" fill="#1E4771"/>
</g>
<defs>
<clipPath id="clip0">
<rect width="30" height="30" fill="white" transform="translate(35 35)"/>
</clipPath>
</defs>
</svg>
