<svg width="114" height="75" viewBox="0 0 114 75" fill="none" xmlns="http://www.w3.org/2000/svg">
<path fill-rule="evenodd" clip-rule="evenodd" d="M76.3779 11.4424C79.3983 10.2395 81.6347 8.54923 85.016 8.00368C88.3974 7.45813 89.2705 9.06795 92.0994 9.1395C94.9283 9.21105 98.6259 8.83542 98.7819 9.35414C98.9378 9.87286 93.2043 11.0534 91.3287 12.3457C89.4532 13.6381 89.6314 13.9287 88.7181 15.2658C88.1562 16.0871 87.4981 16.8378 86.7579 17.5016C86.7579 17.5016 94.1933 19.6481 98.0379 17.5016C101.477 15.5833 104.609 16.9561 107.549 25.8414C110.489 34.7268 113.06 50.7311 113.002 60.0905C112.944 69.4498 112.053 73.0585 111.22 74.7399C109.26 78.7197 103.482 35.9118 86.8069 32.5759C81.9421 31.601 76.115 32.4865 76.115 32.4865C69.5662 39.3148 64.8529 39.6412 58.7407 44.3813C53.515 48.4058 37.8024 63.2475 35.7219 65.6041C33.6415 67.9607 33.2316 67.1737 35.1784 64.7769C37.1252 62.38 50.107 44.1487 52.8869 39.7351C55.8717 35.0085 56.834 31.762 57.1057 30.7917C60.2242 19.8314 46.3559 11.362 30.4874 17.8236C22.8337 20.9538 3.03145 31.5519 0.665871 32.6117C-1.69971 33.6715 2.55477 29.7676 8.42641 25.0589C14.298 20.3501 36.9738 6.4028 46.1777 3.39332C55.3817 0.383835 61.1998 -1.10525 61.6498 0.951746C62.7101 5.81253 68.1585 13.5844 73.5846 12.3905C74.5444 12.1672 75.48 11.8497 76.3779 11.4424Z" fill="#15599A"/>
</svg>
