<svg width="286" height="111" viewBox="0 0 286 111" fill="none" xmlns="http://www.w3.org/2000/svg">
<g clip-path="url(#clip0)">
<path d="M285.367 39.1162C285.367 39.1162 251.673 24.0086 185.968 25.0261L181.614 23.6915C181.614 23.6915 170.122 3.56283 154.924 0.569337C154.924 0.569337 155.736 23.9938 152.466 28.8011C152.466 28.8011 150.636 32.414 143.978 34.3752C143.978 34.3752 107 43.599 75.3356 57.0034L68.9806 55.9491L70.1173 58.6329C70.1173 58.6329 55.695 64.3249 52.654 63.0568C52.6392 63.0346 37.2057 39.647 3.72581 32.8637C3.72581 32.8637 0.367482 32.5246 1.06867 33.9476C1.06867 33.9476 30.3931 57.5417 32.7403 75.886C32.7403 75.886 33.9433 94.3779 29.2196 108.446C29.2196 108.446 26.865 112.132 31.1091 109.78C31.1091 109.78 44.3948 101.287 52.595 75.9671L69.6154 73.8216L69.7187 76.7708L74.5237 74.5589C74.5237 74.5589 92.238 76.1957 101.722 75.0602L102.638 75.6722L99.2129 79.9708C99.2129 79.9708 101.7 82.8316 109.546 77.0658L112.152 76.7708C112.152 76.7708 158.172 82.2122 191.866 73.0105L189.799 82.1901L185.371 94.0461L188.655 93.5668C188.655 93.5668 200.258 89.6222 211.772 68.8668C211.772 68.8668 245.193 64.9959 270.93 50.9648C270.93 50.9648 269.188 49.2395 267.912 49.5492L263.535 48.4506L274.178 46.858C274.178 46.858 278.392 46.858 285.855 40.4949C285.92 40.3737 285.959 40.2402 285.97 40.1029C285.98 39.9657 285.962 39.8277 285.916 39.6979C285.87 39.5681 285.798 39.4493 285.703 39.3491C285.609 39.2489 285.494 39.1696 285.367 39.1162Z" fill="#14538F"/>
</g>
<defs>
<clipPath id="clip0">
<rect width="285" height="110" fill="white" transform="translate(0.972839 0.569336)"/>
</clipPath>
</defs>
</svg>
