<svg width="85" height="92" viewBox="0 0 85 92" fill="none" xmlns="http://www.w3.org/2000/svg">
<circle cx="40.5" cy="44.5" r="36.6" fill="white" stroke="#1E4771" stroke-width="1.8"/>
<g clip-path="url(#clip0)">
<path d="M40.7611 34.1087C40.945 34.1066 41.1207 34.1743 41.2526 34.3035C41.3812 34.4293 41.4543 34.5975 41.4577 34.7773C41.4618 34.9598 41.3942 35.1334 41.2677 35.2654C41.1419 35.3967 40.9724 35.4712 40.7899 35.4752C40.7858 35.4766 40.7796 35.476 40.7748 35.476C40.595 35.476 40.4255 35.4062 40.297 35.2811C40.1678 35.1546 40.0946 34.9864 40.0912 34.8067C40.087 34.6234 40.1548 34.4506 40.2812 34.3186C40.4077 34.1873 40.5779 34.1121 40.7604 34.1088C40.7605 34.108 40.7611 34.1087 40.7611 34.1087Z" fill="#1E4771"/>
<path d="M45.5422 33.0129C46.0091 32.4188 46.2381 31.846 46.2422 31.2636C46.2408 30.8568 46.113 30.4501 45.8532 30.0201C45.6365 29.6654 45.3467 29.3236 44.9687 28.977C44.2659 28.3364 43.3711 27.7881 42.4503 27.4341C41.7852 27.1805 41.1658 27.052 40.6094 27.0507H40.5971C39.5683 27.0507 38.5935 27.3719 37.7 28.0069C37.0273 28.4827 36.4914 29.0474 36.0177 29.5458C35.9501 29.6168 35.8864 29.6839 35.8229 29.7501C35.6144 29.9688 35.451 30.133 35.3067 30.267L31.7917 27.1709C31.6673 27.0608 31.5066 27 31.3392 27C31.2414 27 31.1471 27.0205 31.0582 27.0608C30.8142 27.1709 30.6562 27.4156 30.6562 27.6836V34.7424C30.6562 35.0124 30.8155 35.2578 31.0623 35.3672C31.1505 35.4062 31.2434 35.426 31.3392 35.426C31.5094 35.426 31.6728 35.3631 31.7985 35.2489L35.3061 32.0742C35.5098 32.2739 35.7326 32.5213 36.0048 32.8304L36.0225 32.8509C36.4423 33.3232 36.9174 33.8592 37.5114 34.3302C37.6338 34.4266 37.7801 34.4771 37.9352 34.4771C38.1458 34.4771 38.3412 34.3828 38.4718 34.2181C38.7056 33.9221 38.6551 33.4914 38.3597 33.2576C37.8908 32.8878 37.4793 32.4353 37.0281 31.9239C36.9946 31.8863 36.9604 31.848 36.927 31.8104C36.737 31.5972 36.5414 31.3763 36.339 31.1727C36.5503 30.9703 36.7574 30.7516 36.9578 30.5403C37.0848 30.4063 37.2161 30.2676 37.3481 30.1336C37.8328 29.6353 38.422 29.0815 39.1185 28.7521C39.6005 28.5244 40.0742 28.4185 40.6094 28.4178C41.1707 28.4116 41.976 28.6577 42.7108 29.0548C43.4443 29.4432 44.1375 29.9941 44.5196 30.4924C44.7739 30.8144 44.8812 31.1117 44.8751 31.2635C44.8805 31.5041 44.7288 31.8404 44.4697 32.1645C44.1867 32.5241 43.7622 32.8959 43.2748 33.2104C43.121 33.3095 43.0157 33.4619 42.9774 33.641C42.9391 33.8195 42.9726 34.002 43.0718 34.1558C43.1982 34.3513 43.4129 34.4682 43.6467 34.4682C43.7779 34.4682 43.9064 34.4298 44.0172 34.3581C44.6426 33.9528 45.156 33.5003 45.5422 33.0129ZM34.2656 31.1719L32.0234 33.2016V29.1964L34.2656 31.1719Z" fill="#1E4771"/>
<path d="M42.7559 31.8004C43.1334 31.8004 43.4395 31.4943 43.4395 31.1168C43.4395 30.7393 43.1334 30.4332 42.7559 30.4332C42.3783 30.4332 42.0723 30.7393 42.0723 31.1168C42.0723 31.4943 42.3783 31.8004 42.7559 31.8004Z" fill="#1E4771"/>
<path d="M43.5563 48.458L47.0639 45.2834C47.2683 45.4837 47.4911 45.7305 47.7625 46.0395L47.7823 46.0627C48.2014 46.5344 48.6758 47.069 49.2691 47.5393C49.3915 47.635 49.5378 47.6862 49.693 47.6862C49.9035 47.6862 50.099 47.5919 50.2296 47.4265C50.3431 47.2836 50.3937 47.1045 50.3725 46.9234C50.3513 46.7416 50.2604 46.5796 50.1175 46.4667C49.6506 46.0983 49.2384 45.645 48.7858 45.133C48.7517 45.0947 48.7182 45.0571 48.684 45.0189C48.4946 44.8056 48.2984 44.5855 48.0968 44.3818C48.3087 44.1787 48.5158 43.96 48.7161 43.7481C48.8433 43.6148 48.9738 43.4766 49.1058 43.3426C49.5904 42.8436 50.1797 42.29 50.8763 41.9611C51.3582 41.7334 51.8319 41.6275 52.3672 41.6262H52.3836C52.9421 41.6262 53.7412 41.8702 54.4692 42.2632C55.2027 42.6529 55.8952 43.2032 56.2773 43.7008C56.531 44.0235 56.639 44.3202 56.6328 44.4719C56.6383 44.7125 56.4865 45.0496 56.2274 45.3735C55.9444 45.7331 55.5199 46.1043 55.0325 46.4187C54.8787 46.5178 54.7734 46.671 54.7352 46.8495C54.6969 47.0286 54.7304 47.2111 54.8295 47.3641C54.956 47.5596 55.1706 47.6765 55.4044 47.6765C55.5356 47.6765 55.6635 47.6389 55.7749 47.5672C56.4004 47.1611 56.9138 46.7085 57.3 46.2218C57.7669 45.6271 57.9959 45.055 58 44.4718C57.9986 44.065 57.8708 43.6583 57.611 43.229C57.3943 42.8735 57.1052 42.5324 56.7265 42.1858C56.0237 41.5446 55.1296 40.997 54.2081 40.643C53.543 40.3894 52.9229 40.2601 52.3672 40.2595H52.3542C51.3261 40.2595 50.3513 40.5808 49.4578 41.2158C48.7845 41.6916 48.2479 42.2569 47.7741 42.756C47.7071 42.8263 47.6436 42.8927 47.5807 42.959C47.3728 43.177 47.2088 43.3418 47.0646 43.4758L43.5495 40.3791C43.4244 40.269 43.2638 40.2089 43.097 40.2089C42.9992 40.2089 42.9049 40.2294 42.816 40.269C42.572 40.3798 42.4141 40.6245 42.4141 40.8925V47.9506C42.4141 48.2213 42.5733 48.466 42.8208 48.5755C42.9083 48.6144 43.0013 48.6342 43.0977 48.6342C43.2679 48.6344 43.4306 48.5715 43.5563 48.458ZM43.7812 42.4055L46.0234 44.3805L43.7812 46.41V42.4055Z" fill="#1E4771"/>
<path d="M52.5176 47.3172H52.5183C52.7035 47.3124 52.8785 47.3828 53.0105 47.512C53.139 47.6378 53.2121 47.8067 53.2162 47.9864C53.2237 48.363 52.9236 48.6761 52.547 48.6843C52.5422 48.6843 52.5367 48.6843 52.5319 48.6843C52.3528 48.6843 52.1826 48.6153 52.0541 48.4894C51.9256 48.3637 51.8524 48.1955 51.849 48.0151C51.8408 47.6384 52.1409 47.3254 52.5176 47.3172Z" fill="#1E4771"/>
<path d="M54.5137 45.0093C54.8912 45.0093 55.1973 44.7032 55.1973 44.3257C55.1973 43.9481 54.8912 43.6421 54.5137 43.6421C54.1361 43.6421 53.8301 43.9481 53.8301 44.3257C53.8301 44.7032 54.1361 45.0093 54.5137 45.0093Z" fill="#1E4771"/>
<path d="M33.1179 48.6843C32.9388 48.6843 32.7686 48.6153 32.6401 48.4894C32.5116 48.3637 32.4384 48.1955 32.435 48.0151C32.4268 47.6384 32.7269 47.3254 33.1035 47.3172H33.1043C33.2888 47.3124 33.4645 47.3828 33.5964 47.512C33.725 47.6378 33.798 47.8067 33.8015 47.9864C33.8056 48.1689 33.7379 48.3419 33.6115 48.4738C33.4857 48.6057 33.3155 48.6802 33.133 48.6843C33.1281 48.6843 33.1233 48.6843 33.1179 48.6843Z" fill="#1E4771"/>
<path d="M23 40.8927V47.9508C23 48.2215 23.16 48.4662 23.4067 48.5757C23.4942 48.6146 23.5872 48.6344 23.6836 48.6344C23.8538 48.6344 24.0165 48.5715 24.1423 48.458L27.6499 45.2828C27.8542 45.4844 28.0771 45.7312 28.3485 46.0395L28.3683 46.0627C28.7874 46.5344 29.2618 47.069 29.8558 47.5393C29.9775 47.635 30.1238 47.6863 30.279 47.6863C30.4895 47.6863 30.685 47.5919 30.8156 47.4265C30.9291 47.2836 30.9797 47.1045 30.9585 46.9234C30.9373 46.7416 30.8464 46.5796 30.7036 46.4667C30.2352 46.0976 29.8238 45.6444 29.3719 45.133C29.3384 45.0954 29.3042 45.0571 29.2708 45.0196C29.0814 44.8063 28.8852 44.5855 28.6829 44.3818C28.8948 44.1787 29.1019 43.96 29.3029 43.7481C29.4293 43.6148 29.5599 43.476 29.6918 43.3426C30.1765 42.8436 30.7658 42.29 31.4623 41.9611C31.9442 41.7334 32.4179 41.6275 32.9533 41.6262H32.9696C33.5281 41.6262 34.3272 41.8702 35.0553 42.2632C35.7881 42.6522 36.4812 43.2032 36.8633 43.7008C37.117 44.0235 37.225 44.3202 37.2188 44.4719C37.2243 44.7125 37.0725 45.0496 36.8134 45.3735C36.5304 45.7332 36.1059 46.1043 35.6185 46.4187C35.302 46.6238 35.2111 47.0476 35.4155 47.3641C35.542 47.5597 35.7573 47.6765 35.9904 47.6765C36.1216 47.6765 36.2502 47.6389 36.3609 47.5672C36.9864 47.1611 37.4998 46.7085 37.886 46.2218C38.3529 45.6271 38.582 45.055 38.586 44.4718C38.5846 44.065 38.4568 43.659 38.1971 43.229C37.9804 42.8735 37.6906 42.5324 37.3125 42.1858C36.6098 41.5446 35.7157 40.997 34.7942 40.643C34.129 40.3894 33.509 40.2601 32.9533 40.2595H32.9403C31.9121 40.2595 30.9373 40.5808 30.0439 41.2158C29.3712 41.6916 28.8339 42.2569 28.3609 42.7553C28.2933 42.8257 28.2303 42.8928 28.1667 42.959C27.9582 43.1777 27.7942 43.3418 27.6506 43.4758L24.1356 40.3791C24.0112 40.269 23.8505 40.2089 23.683 40.2089C23.5853 40.2089 23.491 40.2294 23.4021 40.269C23.158 40.38 23 40.624 23 40.8927V40.8927ZM24.3672 42.4055L26.6094 44.3805L24.3672 46.41V42.4055Z" fill="#1E4771"/>
<path d="M35.0996 45.0093C35.4771 45.0093 35.7832 44.7032 35.7832 44.3257C35.7832 43.9481 35.4771 43.6421 35.0996 43.6421C34.7221 43.6421 34.416 43.9481 34.416 44.3257C34.416 44.7032 34.7221 45.0093 35.0996 45.0093Z" fill="#1E4771"/>
<path d="M40.7605 60.6322C40.9443 60.628 41.1207 60.6978 41.2526 60.827C41.3812 60.9528 41.4543 61.1216 41.4577 61.3014C41.4659 61.6781 41.1665 61.9904 40.7898 61.9994C40.7857 62.0007 40.7796 61.9994 40.7741 61.9994C40.595 61.9994 40.4255 61.9303 40.297 61.8045C40.1678 61.6787 40.0953 61.5099 40.0912 61.3301C40.083 60.9534 40.3838 60.6403 40.7605 60.6322Z" fill="#1E4771"/>
<path d="M30.6562 54.2071V61.2659C30.6562 61.5359 30.8162 61.7813 31.063 61.8907C31.1505 61.9297 31.2435 61.9495 31.3398 61.9495C31.5094 61.9495 31.6728 61.8866 31.7985 61.7731L35.3061 58.5978C35.5092 58.7982 35.7326 59.0449 36.0048 59.3546L36.0232 59.3758C36.443 59.8481 36.9174 60.3834 37.5115 60.8537C37.5121 60.8545 37.5121 60.8545 37.5121 60.8545C37.6345 60.9508 37.7801 61.0014 37.9353 61.0014C38.1458 61.0014 38.3413 60.9063 38.4719 60.7416C38.5854 60.598 38.636 60.4196 38.6148 60.2378C38.5936 60.0566 38.5027 59.8946 38.3599 59.7811C37.8909 59.4113 37.4794 58.9588 37.0282 58.4481C36.9941 58.4098 36.9606 58.3716 36.9271 58.334C36.7371 58.1207 36.5415 57.8998 36.3392 57.6969C36.5512 57.4938 36.7582 57.2744 36.9592 57.0625C37.0857 56.9292 37.2169 56.7911 37.3482 56.6571C37.8328 56.1588 38.4228 55.6051 39.1186 55.2756C39.6005 55.0486 40.0743 54.942 40.6095 54.9413C41.1707 54.9365 41.976 55.1812 42.7116 55.5783C43.4444 55.9673 44.1375 56.5183 44.5197 57.0159C44.7733 57.3386 44.8813 57.6353 44.8751 57.787C44.8806 58.0277 44.7288 58.3646 44.4698 58.6886C44.1861 59.0482 43.7616 59.4194 43.2748 59.7338C42.9583 59.9389 42.8674 60.3627 43.0718 60.6793C43.1983 60.8748 43.4129 60.9917 43.6467 60.9917C43.778 60.9917 43.9065 60.9533 44.0172 60.8822C44.6427 60.4762 45.1561 60.0236 45.5423 59.5369C46.0092 58.9422 46.2382 58.3693 46.2423 57.7869C46.241 57.3802 46.1131 56.9734 45.8534 56.5441C45.6367 56.1887 45.3468 55.8475 44.9688 55.5009C44.2661 54.8597 43.3712 54.3121 42.4511 53.958C41.7853 53.7044 41.166 53.5752 40.6095 53.5739H40.5965C39.5684 53.5739 38.5936 53.8959 37.7008 54.5302C37.0269 55.0067 36.4902 55.5713 36.0171 56.0703C35.9502 56.1407 35.8866 56.2077 35.823 56.274C35.6145 56.492 35.4504 56.6569 35.3069 56.7902L31.7918 53.6942C31.6674 53.5841 31.5068 53.5239 31.3393 53.5239C31.2415 53.5239 31.1472 53.5438 31.0583 53.5841C30.8142 53.6951 30.6562 53.9392 30.6562 54.2071ZM32.0234 55.7206L34.2656 57.6955L32.0234 59.7251V55.7206Z" fill="#1E4771"/>
<path d="M42.7559 58.3242C43.1334 58.3242 43.4395 58.0181 43.4395 57.6406C43.4395 57.263 43.1334 56.957 42.7559 56.957C42.3783 56.957 42.0723 57.263 42.0723 57.6406C42.0723 58.0181 42.3783 58.3242 42.7559 58.3242Z" fill="#1E4771"/>
</g>
<circle cx="9" cy="86" r="4.9" stroke="#247ED9" stroke-opacity="0.5" stroke-width="1.8" stroke-dasharray="2 2"/>
<circle r="2.9" transform="matrix(1 0 0 -1 4 9)" stroke="#247ED9" stroke-opacity="0.5" stroke-width="1.8" stroke-dasharray="2 2"/>
<circle cx="77" cy="8" r="6.9" stroke="#247ED9" stroke-opacity="0.5" stroke-width="1.8" stroke-dasharray="2 2"/>
<defs>
<clipPath id="clip0">
<rect width="35" height="35" fill="white" transform="translate(23 27)"/>
</clipPath>
</defs>
</svg>
