<svg width="134" height="134" viewBox="0 0 134 134" fill="none" xmlns="http://www.w3.org/2000/svg">
<g clip-path="url(#clip0)">
<path d="M125.855 66.6461C125.855 66.6461 126.447 53.4315 122.019 52.9585C122.019 52.9585 119.348 42.0137 114.809 42.0696C114.809 42.0696 106.652 32.4159 102.266 34.2626C102.266 34.2626 92.2149 30.7429 89.7778 32.5748C89.7778 32.5748 84.5082 30.8719 74.4917 33.3102C74.4917 33.3102 72.9678 30.9875 55.5121 32.3911C55.5121 32.3911 33.309 33.8558 30.634 34.8201C30.634 34.8201 27.1571 32.0218 26.1099 35.9066C26.1099 35.9066 20.5003 36.8064 17.4421 40.4429C14.3961 44.0805 18.0906 42.5616 21.6866 44.3417C21.6866 44.3417 29.7604 46.195 29.9889 46.7677C30.2297 47.3414 26.4813 49.3087 26.4813 49.3087C26.4813 49.3087 -3.37129 67.8162 10.0502 85.0291C10.0502 85.0291 12.5855 87.5438 9.64386 83.3372C6.70222 79.1306 6.7188 72.626 9.4464 68.5912C12.174 64.5564 16.7181 55.8751 31.4328 47.1837C31.4328 47.1837 34.9505 47.3024 35.0848 48.0991C35.219 48.8957 24.1265 61.7222 21.569 72.23C19.0116 82.7378 16.5006 90.5053 27.0305 99.5464C27.0305 99.5464 31.9431 102.454 27.4141 98.8469C22.8972 95.2413 16.5296 88.7436 24.5463 67.618C24.5774 67.5474 24.5952 67.4877 24.6373 67.4304C25.3779 66.0534 34.452 49.1062 36.7139 48.1035C36.7139 48.1035 38.1909 48.0325 38.203 48.5605C38.2031 49.0874 36.8086 48.7985 36.0414 49.6706C35.2742 50.5427 35.1506 58.0666 39.0482 61.4798C41.1442 63.3165 41.9242 63.7566 42.1937 63.7572L42.2826 63.4591C42.2826 63.4591 42.4256 63.7665 42.1937 63.7572L41.6223 65.5542C41.6223 65.5542 41.5621 66.3328 42.2033 64.9711C42.8445 63.6094 42.8445 63.6094 42.8445 63.6094L47.9472 66.4485C47.9472 66.4485 46.9124 70.7265 46.9924 71.0525C47.0723 71.3785 47.447 72.3568 48.1443 69.4687C48.8295 66.5795 48.8609 66.901 48.8609 66.901C48.8609 66.901 52.1358 69.1046 49.3934 66.3134C49.3934 66.3134 50.2218 63.0699 50.4814 63.0451C50.741 63.0202 51.9566 68.6591 52.4056 69.4973C52.8556 70.3233 56.8108 73.117 57.2744 73.2704C57.738 73.4238 57.9931 72.9206 54.1868 69.7119C54.1868 69.7119 52.8363 68.4223 52.3516 65.0691C51.8802 61.7048 51.6514 60.7401 51.6514 60.7401L53.1915 58.9351C53.1915 58.9351 52.7491 59.7394 52.6181 60.6216C52.487 61.5039 52.847 62.6401 55.3298 64.9294C57.8004 67.2175 63.251 73.826 66.0354 74.9793C68.8198 76.1326 70.5007 76.7667 70.5007 76.7667C70.5007 76.7667 72.5032 77.3694 69.6433 75.8416C66.7835 74.3137 66.2374 74.5202 63.4184 71.3665C60.5994 68.2129 54.8923 62.7812 54.5349 61.486C54.1775 60.1907 54.8577 60.254 56.2227 59.805C57.5756 59.3549 58.7276 58.298 59.0703 58.6974C59.4008 59.0958 59.047 65.8018 61.9959 68.6122C64.9459 71.4105 69.6932 73.5917 69.6932 73.5917C69.6932 73.5917 71.7385 74.2597 69.6426 72.9499C67.5455 71.6522 63.105 68.5438 62.6696 68.0867C62.2342 67.6297 59.9456 60.6167 60.5043 59.0881C61.063 57.5594 68.6871 57.7904 75.3439 55.7749C75.3439 55.7749 76.0094 55.4692 75.7499 57.0747C75.4904 58.6801 77.1125 58.8922 77.1125 58.8922C77.1125 58.8922 74.8929 63.5256 79.2587 68.6242C79.2587 68.6242 80.5221 70.3223 79.0151 66.7637C79.0151 66.7637 78.5384 61.0832 79.8867 59.628C81.235 58.1727 79.5639 61.3868 81.2616 64.0809C82.9605 66.7629 85.6543 69.5496 85.6543 69.5496C85.6543 69.5496 87.3768 71.4496 85.3014 68.2058C83.2381 64.9631 81.8294 62.4551 81.931 61.3618C82.0326 60.2685 83.0043 57.1977 83.6046 56.9349C84.2049 56.6722 83.9812 58.5505 83.9812 58.5505C83.9812 58.5505 82.5742 59.5837 82.8562 61.5581C83.1504 63.5336 86.3306 65.5692 91.9524 65.7242C91.9524 65.7242 93.8251 66.0086 89.7728 63.7327C85.7205 61.4568 88.4465 59.2842 88.4465 59.2842C88.4465 59.2842 90.1278 57.0145 91.0146 57.097C91.9014 57.1794 90.9559 58.2555 90.9399 59.614C90.9227 60.9847 91.6716 65.3183 94.713 66.0789C97.7545 66.8395 94.2099 65.2969 93.901 63.4793C93.5921 61.6617 92.2846 60.4375 93.4365 58.3268C93.4365 58.3268 96.8526 60.0657 100.025 56.5134C100.025 56.5134 101.036 56.9749 100.949 57.9103C100.862 58.8456 98.8114 57.7115 98.2112 59.5549C98.2112 59.5549 94.2193 62.2959 98.2075 74.3557C98.2075 74.3557 99.0311 75.6452 98.465 72.1129C97.8989 68.5805 99.3244 62.8686 99.8512 62.3417C99.8512 62.3417 99.795 61.2337 101.246 62.6306C102.696 64.0275 104.458 61.5569 105.344 62.1662C106.231 62.7755 106.574 63.7018 106.574 63.7018C106.574 63.7018 104.57 64.2997 104.358 64.8681C104.147 65.4243 97.4974 66.1784 101.545 72.4605C101.545 72.4605 103.173 74.1924 103.79 74.409C104.407 74.6257 105.184 74.698 103.484 73.2166C103.484 73.2166 98.6873 67.0855 105.718 67.3715C105.718 67.3715 108.237 68.0836 109.209 66.5933C109.209 66.5933 110.584 67.0888 110.507 71.3455C110.43 75.6022 112.039 77.0138 112.014 77.8079C111.99 78.5899 111.436 81.1237 111.633 83.0901C111.818 85.0555 104.852 85.7802 96.5073 93.4342C88.1624 101.088 93.6096 100.222 93.6096 100.222C93.6096 100.222 98.1067 99.9543 98.9404 100.608C99.7741 101.261 100.838 105.109 105.583 101.115C105.583 101.115 106.336 100.928 107.731 100.151C109.113 99.3847 108.994 98.4301 109.665 98.0637C110.335 97.7094 108.572 99.0158 110.822 97.485C113.071 95.9543 112.67 94.606 115.078 93.0899C117.485 91.5739 120.322 88.7377 120.41 87.7902C120.498 86.8427 121.409 86.1431 122.657 85.1074C123.918 84.0607 129.152 71.9148 125.855 66.6461ZM41.3709 62.0633C41.2085 62.0972 39.8423 60.9778 39.8423 60.9778C36.7228 58.9479 36.6449 51.6136 36.6833 51.2006C36.7217 50.7876 43.1017 49.6408 43.1017 49.6408L43.7334 49.6995C43.7334 49.6995 43.4444 50.5671 41.144 50.9291C38.8436 51.2911 39.6793 52.5818 39.6941 53.4776C39.721 54.3746 39.546 57.3112 41.211 60.8845C42.887 64.471 41.5334 62.0294 41.3709 62.0633ZM50.2117 60.4102C49.4727 60.9786 48.6328 65.532 48.2978 65.7092C47.9627 65.8863 43.5844 62.6367 43.5844 62.6367L47.9692 54.6145L50.221 54.248C49.3294 59.2254 50.9507 59.8418 50.2117 60.4102ZM47.9863 53.2438C46.2589 53.7694 44.5732 58.722 43.8566 60.7628C43.14 62.8037 42.6348 61.3844 42.6348 61.3844C39.2452 53.6932 41.0571 52.9182 41.0571 52.9182C43.2098 52.9591 54.1353 49.9682 54.1353 49.9682C54.1353 49.9682 57.4805 50.757 57.4319 51.2793C57.3834 51.8017 49.7127 52.7304 47.9863 53.2438ZM59.5817 55.4368C52.8035 56.9141 51.4744 58.1628 51.4744 58.1628C51.1418 56.6003 51.7465 55.2352 51.7465 55.2352C52.155 55.3222 56.4578 55.0361 58.7921 54.8365C61.1275 54.6248 59.5817 55.4368 59.5817 55.4368ZM57.4846 53.6122C53.0022 54.2492 52.177 53.7682 54.0302 53.3401C54.0302 53.3401 59.907 51.9383 60.733 52.0151C61.5712 52.093 63.7891 52.6178 63.7598 52.9336C63.7315 53.2373 61.967 52.9752 57.4846 53.6122Z" fill="#15599A"/>
</g>
<defs>
<clipPath id="clip0">
<rect width="122" height="122" fill="white" transform="translate(12.2658 0.569336) rotate(5.31129)"/>
</clipPath>
</defs>
</svg>
