<svg width="179" height="115" viewBox="0 0 179 115" fill="none" xmlns="http://www.w3.org/2000/svg">
<g clip-path="url(#clip0)">
<path d="M12.5696 27.5158C14.058 25.2155 15.7873 23.0807 17.7281 21.1478C19.3316 19.5519 20.8163 18.471 23.1457 19.0086C29.1158 20.2678 34.8791 22.4962 40.838 23.8037C43.1462 24.5013 45.6121 24.4793 47.9085 23.7407C50.7824 22.5059 50.7822 19.5739 51.8411 17.0389C52.2081 16.1652 52.7937 15.4007 53.5414 14.8193C54.2891 14.2378 55.1737 13.859 56.1098 13.7194C58.9541 13.2228 61.8389 12.9977 64.7254 13.0471C75.7261 13.2148 86.5823 15.5706 96.6629 19.9774C107.357 24.4495 117.473 30.1982 126.79 37.0989C137.482 44.9378 147.092 54.1591 155.368 64.523C155.418 64.5874 155.45 64.6639 155.461 64.7448C155.472 64.8257 155.461 64.908 155.43 64.9835C155.399 65.0589 155.349 65.1248 155.284 65.1743C155.219 65.2239 155.142 65.2554 155.061 65.2657C152.203 65.3347 149.34 65.4198 146.557 65.4553C146.645 65.8151 146.708 66.1807 146.745 66.5493C146.863 66.475 147.066 66.6235 147.04 66.7361C146.074 70.9196 149.113 74.6885 151.415 77.9142C154 81.375 156.619 84.691 158.82 88.3512C162.349 94.2499 164.447 101.14 162.302 107.797C162.268 107.873 162.206 107.933 162.13 107.966C162.053 107.999 161.967 108.001 161.889 107.973C158.453 106.554 155.292 104.546 152.548 102.038C150.057 99.3054 147.809 96.3596 145.832 93.2342C144.388 91.2062 142.998 89.089 141.585 87.0004C140.67 88.0548 139.699 89.0582 138.674 90.0063C137.33 91.2751 135.891 92.4386 134.369 93.4867C133.493 94.2404 132.361 94.6285 131.208 94.5706C128.335 94.0431 127.708 89.3564 126.993 87.1747L123.047 74.9432C122.333 72.7615 121.589 70.5563 120.914 68.3498C109.022 67.1643 97.7103 62.2149 86.1769 59.4006C77.8453 57.376 68.9031 55.6512 60.9206 52.1142C62.5025 55.5976 64.4181 58.9547 65.7577 62.5347C67.6481 67.3943 68.892 72.5622 70.3571 77.5778L75.066 93.8326C75.1722 94.1791 74.8655 94.7015 74.4293 94.4652C62.8996 88.2623 54.4252 77.9852 47.8606 66.9118C44.4665 61.1629 41.5075 55.1415 38.5968 49.1313C37.3754 46.5784 35.8328 43.9514 35.9092 41.0541C35.9575 40.8449 36.0021 40.6519 35.97 40.4242C27.0156 39.1545 18.7654 34.8586 12.5867 28.2485C12.5025 28.1459 12.4551 28.018 12.452 27.8852C12.4489 27.7524 12.4903 27.6223 12.5696 27.5158Z" fill="#15599A"/>
</g>
<defs>
<clipPath id="clip0">
<rect width="164" height="79" fill="white" transform="matrix(-0.974386 -0.22488 -0.22488 0.974386 178.537 37.4497)"/>
</clipPath>
</defs>
</svg>
