<svg width="1440" height="100" viewBox="0 0 1440 100" fill="none" xmlns="http://www.w3.org/2000/svg">
<g clip-path="url(#clip0)">
<path d="M726.937 78.0856C445.144 67.3034 154.291 22.1995 -9.61768 -0.750977L-13.9764 113.166L1434.97 169.224L1439.33 55.3071C1280.47 65.9077 1028.72 89.6325 726.937 78.0856Z" fill="white" fill-opacity="0.5"/>
<path d="M730.887 77.2126C447.366 88.3395 162.203 66.1718 -4.00513 56.0151L0.465388 169.927L1453.26 113.108L1448.79 -0.803983C1290.26 22.0972 1034.52 65.2966 730.887 77.2126Z" fill="white" fill-opacity="0.5"/>
<path d="M730.727 76.7363C447.16 76.7363 163.258 43.403 -2.32349 26.7363V100.736H1445.68V26.7363C1286.46 43.403 1034.4 76.7363 730.727 76.7363Z" fill="white"/>
</g>
<defs>
<clipPath id="clip0">
<rect width="1440" height="100" fill="white"/>
</clipPath>
</defs>
</svg>
