<svg width="29" height="29" viewBox="0 0 29 29" fill="none" xmlns="http://www.w3.org/2000/svg">
<path d="M27.5194 21.2958C27.2061 22.4605 26.2878 23.3787 25.1232 23.6923C22.9957 24.2744 14.4855 24.2744 14.4855 24.2744C14.4855 24.2744 5.97564 24.2744 3.84813 23.7144C2.70597 23.4011 1.76526 22.4604 1.45197 21.2958C0.89209 19.1685 0.89209 14.7566 0.89209 14.7566C0.89209 14.7566 0.89209 10.3226 1.45197 8.21746C1.76559 7.0529 2.68357 6.13475 3.8483 5.82113C5.99804 5.23885 14.4858 5.23885 14.4858 5.23885C14.4858 5.23885 22.9957 5.23885 25.1232 5.79889C26.2879 6.11235 27.2061 7.03049 27.5197 8.19506C28.0794 10.3226 28.0794 14.7342 28.0794 14.7342C28.0794 14.7342 28.1018 19.1685 27.5194 21.2958ZM11.776 10.6808V18.8324L18.8527 14.7566L11.776 10.6808Z" fill="white"/>
</svg>
