<svg width="27" height="22" viewBox="0 0 27 22" fill="none" xmlns="http://www.w3.org/2000/svg">
<path d="M0.103516 20.256C0.103516 16.608 0.647515 13.152 1.73552 9.888C2.82352 6.56 4.45552 3.264 6.63152 0L11.2395 2.112C9.63952 5.184 8.51952 8 7.87952 10.56C7.30352 13.12 7.01552 15.52 7.01552 17.76C7.01552 18.464 7.01552 19.072 7.01552 19.584C7.01552 20.096 7.04752 20.64 7.11152 21.216H0.103516V20.256ZM15.6555 20.256C15.6555 16.608 16.1995 13.152 17.2875 9.888C18.3755 6.56 20.0075 3.264 22.1835 0L26.7915 2.112C25.1915 5.184 24.0715 8 23.4315 10.56C22.8555 13.12 22.5675 15.52 22.5675 17.76C22.5675 18.464 22.5675 19.072 22.5675 19.584C22.5675 20.096 22.5995 20.64 22.6635 21.216H15.6555V20.256Z" fill="#B7BCEA"/>
</svg>
